<?xml version="1.0" encoding="UTF-8" standalone="no"?>
<svg
   width="875"
   height="875"
   id="screenshot-17427f94-470d-80a4-8005-d17dfee27ea3"
   viewBox="0 0 874.99998 874.99998"
   fill="none"
   version="1.1"
   xmlns="http://www.w3.org/2000/svg"
   xmlns:svg="http://www.w3.org/2000/svg">
  <defs
     id="defs9" />
  <g
     id="shape-17427f94-470d-80a4-8005-d17dfee27ea3"
     transform="translate(-176.97657,-176.97657)">
    <path
       d="m 614.47656,181.97656 c -238.703,0 -432.5,193.797 -432.5,432.5 0,238.703 193.797,432.50004 432.5,432.50004 238.703,0 432.50004,-193.79704 432.50004,-432.50004 0,-238.703 -193.79704,-432.5 -432.50004,-432.5 z M 312.67773,308.98828 487.10547,484.57227 c 32.83809,-32.20256 77.79038,-52.09571 127.37109,-52.09571 48.99402,0 93.45886,19.43618 126.19141,50.96875 l 172.86523,-174.30078 3.51367,3.50977 -172.83593,174.27148 c 32.30456,32.85332 52.26562,77.8813 52.26562,127.55078 0,50.013 -20.22733,95.33167 -52.92773,128.24219 L 919.91016,920.25 916.39648,923.76367 739.97266,746.16992 c -32.6662,31.1404 -76.8473,50.30664 -125.4961,50.30664 -49.12835,0 -93.7036,-19.54131 -126.46094,-51.22656 l -174.75,176.19922 -3.51367,-3.50977 174.73242,-176.18359 c -32.15018,-32.8303 -52.00781,-77.74475 -52.00781,-127.2793 0,-49.08235 19.50602,-93.61835 51.13867,-126.36719 L 309.16602,312.50195 Z"
       style="stroke:#000000;stroke-width:10"
       id="path12" />
    <path
       d="m 312.67773,308.98828 -3.51171,3.51367 174.44921,175.60742 c 1.15101,-1.19161 2.30738,-2.37714 3.49024,-3.5371 z m 600.85547,0.15625 -172.86523,174.30078 c 1.19254,1.14882 2.38201,2.2998 3.54297,3.48047 L 917.04687,312.6543 Z m -429.04883,432.61133 -174.73242,176.18359 3.51367,3.50977 174.75,-176.19922 c -1.19058,-1.15162 -2.37232,-2.3107 -3.53125,-3.49414 z m 259.06446,0.96289 c -1.16789,1.17539 -2.3768,2.30782 -3.57617,3.45117 l 176.42382,177.59375 3.51368,-3.51367 z"
       style="fill:#000000"
       id="path11" />
    <path
       d="m 614.47656,432.47656 c -100.449,0 -182,81.551 -182,182 0,100.448 81.551,182 182,182 100.448,0 182,-81.552 182,-182 0,-100.449 -81.552,-182 -182,-182 z"
       style="stroke:#000000;stroke-width:10"
       id="path10" />
  </g>
</svg>
