<svg xmlns="http://www.w3.org/2000/svg" style="display:none">
<symbol id="icon_ui_delete" viewBox="0 0 24 24" fill="currentColor"><path fill-rule="evenodd" clip-rule="evenodd" d="M16.5 4.478v.227a48.816 48.816 0 0 1 3.878.512.75.75 0 1 1-.256 1.478l-.209-.035-1.005 13.07a3 3 0 0 1-2.991 2.77H8.084a3 3 0 0 1-2.991-2.77L4.087 6.66l-.209.035a.75.75 0 0 1-.256-1.478A48.567 48.567 0 0 1 7.5 4.705v-.227c0-1.564 1.213-2.9 2.816-2.951a52.662 52.662 0 0 1 3.369 0c1.603.051 2.815 1.387 2.815 2.951Zm-6.136-1.452a51.196 51.196 0 0 1 3.273 0C14.39 3.05 15 3.684 15 4.478v.113a49.488 49.488 0 0 0-6 0v-.113c0-.794.609-1.428 1.364-1.452Zm-.355 5.945a.75.75 0 1 0-1.5.058l.347 9a.75.75 0 1 0 1.499-.058l-.346-9Zm5.48.058a.75.75 0 1 0-1.498-.058l-.347 9a.75.75 0 0 0 1.5.058l.345-9Z"/></symbol>
<symbol id="icon_ui_edit" viewBox="0 0 24 24" fill="currentColor"><path d="M21.731 2.269a2.625 2.625 0 0 0-3.712 0l-1.157 1.157 3.712 3.712 1.157-1.157a2.625 2.625 0 0 0 0-3.712ZM19.513 8.199l-3.712-3.712-8.4 8.4a5.25 5.25 0 0 0-1.32 2.214l-.8 2.685a.75.75 0 0 0 .933.933l2.685-.8a5.25 5.25 0 0 0 2.214-1.32l8.4-8.4Z"/>
  <path d="M5.25 5.25a3 3 0 0 0-3 3v10.5a3 3 0 0 0 3 3h10.5a3 3 0 0 0 3-3V13.5a.75.75 0 0 0-1.5 0v5.25a1.5 1.5 0 0 1-1.5 1.5H5.25a1.5 1.5 0 0 1-1.5-1.5V8.25a1.5 1.5 0 0 1 1.5-1.5h5.25a.75.75 0 0 0 0-1.5H5.25Z"/></symbol>
<symbol id="icon_ui_eye_closed" viewBox="0 0 24 24" fill="currentColor"><path d="M3.53 2.47a.75.75 0 0 0-1.06 1.06l18 18a.75.75 0 1 0 1.06-1.06l-18-18ZM22.676 12.553a11.249 11.249 0 0 1-2.631 4.31l-3.099-3.099a5.25 5.25 0 0 0-6.71-6.71L7.759 4.577a11.217 11.217 0 0 1 4.242-.827c4.97 0 9.185 3.223 10.675 7.69.12.362.12.752 0 1.113Z"/>
  <path d="M15.75 12c0 .18-.013.357-.037.53l-4.244-4.243A3.75 3.75 0 0 1 15.75 12ZM12.53 15.713l-4.243-4.244a3.75 3.75 0 0 0 4.244 4.243Z"/>
  <path d="M6.75 12c0-.619.107-1.213.304-1.764l-3.1-3.1a11.25 11.25 0 0 0-2.63 4.31c-.12.362-.12.752 0 1.114 1.489 4.467 5.704 7.69 10.675 7.69 1.5 0 2.933-.294 4.242-.827l-2.477-2.477A5.25 5.25 0 0 1 6.75 12Z"/></symbol>
<symbol id="icon_ui_eye_open" viewBox="0 0 24 24" fill="currentColor"><path d="M12 15a3 3 0 1 0 0-6 3 3 0 0 0 0 6Z"/>
  <path fill-rule="evenodd" clip-rule="evenodd" d="M1.323 11.447C2.811 6.976 7.028 3.75 12.001 3.75c4.97 0 9.185 3.223 10.675 7.69.12.362.12.752 0 1.113-1.487 4.471-5.705 7.697-10.677 7.697-4.97 0-9.186-3.223-10.675-7.69a1.762 1.762 0 0 1 0-1.113ZM17.25 12a5.25 5.25 0 1 1-10.5 0 5.25 5.25 0 0 1 10.5 0Z"/></symbol>
<symbol id="icon_ui_lock_closed" viewBox="0 0 24 24" fill="currentColor"><path fill-rule="evenodd" clip-rule="evenodd" d="M12 1.5a5.25 5.25 0 0 0-5.25 5.25v3a3 3 0 0 0-3 3v6.75a3 3 0 0 0 3 3h10.5a3 3 0 0 0 3-3v-6.75a3 3 0 0 0-3-3v-3c0-2.9-2.35-5.25-5.25-5.25Zm3.75 8.25v-3a3.75 3.75 0 1 0-7.5 0v3h7.5Z"/></symbol>
<symbol id="icon_ui_lock_open" viewBox="0 0 24 24" fill="currentColor"><path d="M18 1.5c2.9 0 5.25 2.35 5.25 5.25v3.75a.75.75 0 0 1-1.5 0V6.75a3.75 3.75 0 1 0-7.5 0v3a3 3 0 0 1 3 3v6.75a3 3 0 0 1-3 3H3.75a3 3 0 0 1-3-3v-6.75a3 3 0 0 1 3-3h9v-3c0-2.9 2.35-5.25 5.25-5.25Z"/></symbol>
<symbol id="icon_ui_map_pin" viewBox="0 0 24 24" fill="currentColor"><path fill-rule="evenodd" clip-rule="evenodd" d="m11.54 22.351.07.04.028.016a.76.76 0 0 0 .723 0l.028-.015.071-.041a16.975 16.975 0 0 0 1.144-.742 19.58 19.58 0 0 0 2.683-2.282c1.944-1.99 3.963-4.98 3.963-8.827a8.25 8.25 0 0 0-16.5 0c0 3.846 2.02 6.837 3.963 8.827a19.58 19.58 0 0 0 2.682 2.282 16.975 16.975 0 0 0 1.145.742ZM12 13.5a3 3 0 1 0 0-6 3 3 0 0 0 0 6Z"/></symbol>
<symbol id="icon_ui_mockingjay" viewBox="0 0 24 24" fill="currentColor"><path d="M1363.213 1934.44c-420.644 0-761.645-341-761.645-761.64 0-420.653 341.001-761.653 761.645-761.653 420.654 0 761.654 341 761.654 761.653 0 420.64-341 761.64-761.654 761.64zm0-1719.28c-528.88 0-957.625 428.747-957.625 957.64 0 528.88 428.745 957.627 957.625 957.627 528.894 0 957.64-428.747 957.64-957.627 0-528.893-428.746-957.64-957.64-957.64"/>
  <path d="M575.87 603.333c5.24 3.774 10.843 8.974 17.72 6.614 2.477-.854 4.685-3.067 4.657-5.694-.022-1.906-1.183-3.6-2.299-5.16-16.87-23.56-36.752-43.2-55.23-65.48-10.711-12.92-20.709-26.64-28.075-41.76-3.726-7.653-23.3-52.026 1.217-44.093 3.239 1.053 6.096 3 8.903 4.933 2.553 1.747 5.105 3.507 7.657 5.254 2.641 1.813 5.29 3.64 7.719 5.72 9.741 8.386 17.56 18.84 27.034 27.44 11.602 10.533 23.052 21.226 34.695 31.706 4.481 4.027 50.588 37.094 52.793 27.627.219-.947-.213-1.907-.636-2.773-2.832-5.854-5.678-11.72-9.334-17.094-10.315-15.146-18.958-31.72-28.483-47.506-3.865-6.4-14.85-31.614-4.824-36.587 8.872-4.413 22.23 12.867 27.559 17.84 8.356 7.787 16.172 16.147 24.761 23.693 13.785 12.107 33.417 24.814 52.72 21.614 3.17-.534 6.883-1.48 8.01-4.494.806-2.146-.075-4.52-.947-6.653-1.426-3.467-2.851-6.933-4.275-10.4-1.69-4.12-3.379-8.813-1.524-12.853 1.363-2.974 4.336-4.827 7.19-6.414 5.797-3.24 18.063-2.093 25.037-3.186l26.73-4.24c8.194-1.294 34.807-1.52 19.912-13.454-11.494-9.213-25.69-14.2-39.056-20.386-12.26-5.667-22.522-12.574-29.177-24.574-3.06-5.52-4.736-10.2-2.605-16.653.872-2.64 2.612-5.333 5.333-5.933 1.38-.294 2.813 0 4.195.293 14.952 3.187 29.83 6.707 44.7 10.267 13.585 3.253 27.164 6.533 40.782 9.64 4.47 1.026 9.304.106 8.658-5.56-.532-4.654-4.547-4.787-7.992-6.6-11.095-5.8-21.182-14.44-31.215-21.974-5.063-3.826-10.173-7.693-14.243-12.56-7.69-9.2-12.562-21.213 3.138-23.093 37.236-4.467 73.948 10.533 105.928 27.44 33.42 17.653 67.597 33.92 102.669 48.04 46.472 18.72 93.881 35.52 138.459 58.573 81.06 41.92 163.854 85.414 227.042 152.787 82.374 87.84 122.227 206.2 159.587 320.68 21.213 64.973 43.12 131.44 85.293 185.213 42.187 53.774 109.48 93.16 177.08 83.12 44.067-6.533 83.214-33.186 112.787-66.506 11.707-13.2 25.653-28.774 33.213-44.867 7.187-15.32 16.12-32.52 21.174-48.72 2.346-7.533 3.346-15.427 5.613-22.987 1.893-6.333 5.267-21.093 11.933-13.72 4.707 5.2 7.067 17.014 10.24 23.494a296.338 296.338 0 0 0 27.254 44.973c20.506 27.933 45.893 52.307 74.826 71.4 19.56 12.907 40.774 23.547 58.48 38.907 31.147 27.026 48.667 66.026 66.72 103.106a1588.887 1588.887 0 0 0 160.72 262.027 842371.218 842371.218 0 0 1-113.533-88.28c-24.627-19.133-50.267-38.787-80.613-45.92-34.04-8.013-70.28.653-104.387-7.027-44.107-9.92-78.093-56.08-117.627-34.173-44.533 24.68-75.186 68.387-99.52 113.107-24.32 44.72-44.16 92.293-74.813 132.933-30.093 39.907-69.84 72.04-97.947 113.373-7.2 10.6-13.613 24.854-6.586 35.574 8.96 13.653 29.706 8.666 45.08 3.16 29.52-10.587 61.253-17.307 92.24-12.547 31 4.76 61.16 22.52 74.92 50.693-51.547-14.96-103.854 15.88-150.534 42.36-46.666 26.494-105.92 49.574-151.546 21.334-34.574-21.4-47.907-65.76-47.88-106.414-65.8 4.174-139.28 12.054-181.534 62.64-24.613 29.454-33.912 68.64-38.96 106.694-22.824 172.066 26.035 344.906 78.894 510.24-68.054-76.347-126.444-161.28-173.347-252.16-17.859-34.6-38.657-67.747-58.335-101.334-3.496-5.973-7.204-12.16-13.04-15.88-10.518-6.68-25.081-3.026-34.484 5.147-9.401 8.187-14.83 19.893-19.993 31.24-14.279 31.387-28.557 62.773-42.836 94.147-11.612-29.68-13.985-62.187-13.167-94.04 4.691-182.48 108.082-347.067 220.979-490.507 35.695-45.347 74.885-96.653 68.263-153.987-1.746-15.106-30.624-7.773-44.603-1.786-13.979 6-25.61 17.573-40.541 20.453-37.556 7.28-62.894-41.613-100.415-49.053-19.443-3.854-41.603 3.68-58.295-7.014-8.037-5.146-13.153-13.653-19.032-21.173-14.768-18.88-35.922-32.68-59.157-38.573-16.187-4.107-34.348-5-46.796-16.12-14.652-13.107-15.928-35.48-26.11-52.294-8.523-14.066-22.774-23.466-35.174-34.28-16.839-14.68-35.493-35.506-44.045-56.28-11.103-26.973-7.78-53.986-31.851-75.533-23.255-20.813-57.125-22.667-87.859-28.093-24.384-4.307-48.166-11.467-71.74-19.04-42.529-13.667-85.044-29.654-124.92-49.627-6.592-3.293-14.057-10.613-9.872-16.68 2.126-3.08 6.29-3.813 10.003-4.267 4.187-.533 31.073-1.293 30.19-6.773-.246-1.52-1.687-1.613-2.698-2.453-3.215-2.68-6.817-4.974-10.49-6.974-7.702-4.186-16.013-7.08-24.113-10.373a233.403 233.403 0 0 1-51.461-28.987c-8.19-6.093-16.692-17.04-10.695-25.306 3.95-5.44 11.818-5.694 18.532-5.414 17.99.72 35.978 1.44 53.967 2.174 5.917.226 24.732.6 18.63-9.174-4.143-6.64-15.17-7.56-21.518-10.546a2169.883 2169.883 0 0 1-41.663-20.16c-19.028-9.48-38.797-20.014-50.222-37.947-1.396-2.187-2.676-4.947-1.519-7.267 1.285-2.586 4.721-3.026 7.604-3.093 21.46-.533 42.968.907 64.17 4.28 4.218.68 14.923 2.92 17.655-1.573 2.107-3.467-.956-7.2-3.373-9.267-5.905-5.053-14.412-6.093-21.241-9.373a741.1 741.1 0 0 1-38.738-20.04 740.965 740.965 0 0 1-72.652-46.067c-11.761-8.453-23.84-17.96-31.106-30.76-2.026-3.573-8.047-13.013-1.336-13.8 3.568-.413 8.218 4.173 11.178 5.76 6.452 3.453 12.926 6.88 19.447 10.213 13.019 6.64 26.221 12.96 39.75 18.494 16.109 6.613 32.71 12.133 49.758 15.746 7.892 1.667 16.01 3.067 23.87 4.494 2.786.506 3.697 2.333 5.217-.827.986-2.053-1.366-6.053-2.667-7.52-3.501-3.92-7.717-7.4-11.715-10.813-8.412-7.16-17.353-13.68-26.392-20.027-17.554-12.32-35.672-24.04-51.541-38.56-11.301-10.333-21.315-21.987-31.297-33.6-26.078-30.347-52.624-61.453-67.271-98.693-.879-2.227-1.677-4.88-.38-6.907 1.805-2.8 6.037-2.187 9.183-1.067 33.564 11.96 57.525 41.307 87.47 60.614 23.631 15.24 51.331 23.92 79.375 25.466 11.641.64 29.257 2.094 39.856-3.44 9.308-4.866-.116-12.773-4.721-17.906-6.934-7.72-14.328-15.027-21.888-22.134-14.902-14.013-30.523-27.253-45.135-41.573-14.367-14.08-27.899-29.24-38.71-46.253-5.574-8.774-10.537-18.2-14.471-27.814-1.659-4.053-5.22-11.053-4.199-15.613 1.943-8.68 13.1-2.013 17.563 1.413 6.15 4.707 12.322 9.427 17.785 14.92 2.141 2.147 4.175 4.427 6.488 6.387 1.776 1.507 3.703 2.827 5.625 4.147 20.5 14.013 37.59 34.626 56.386 51.186 11.426 10.08 23.202 19.787 35.708 28.507 12.24 8.533 26.368 14.24 38.296 22.853"/>
  <path d="M1312.047 1469.627c5.953-16.8 12.548-33.28 17.958-50.32.971-1.8 1.52-4.16.58-5.814-.936-1.693-3.325-1.706-5.506-1.866-4.408-.334-8.839-.387-13.278-.32-17.689.12-36.909 2.44-52.773-7.627-8.179-5.76-8.83-16.747-15.992-20.707-6.983-4.266-16.967-2.12-25.53-7.666-14.738-12.12-12.226-33.8-25.929-46.094-5.662-5.946-15.012-8.453-21.22-16.693-5.481-7.88-7.528-17-12.368-23.56-10.305-13.16-34.548-19.36-35.578-39.653-.3-8.987.853-16.614-5.775-23.187-5.553-5.933-13.604-9.987-20.93-15.667-7.726-5.4-13.79-14.76-14.769-24.2-1.526-17.906-5.209-34.093-16.446-48.066-7.57-11.52-21.951-16.067-28.552-29.04-4.927-12.4 1.661-22.52 14.71-23.454 11.41-4.413 4.224-20.24-1.554-27.933-5.272-7.28-11.36-14.907-12.391-25.853-.497-5.494 2.279-11.627 6.508-15.014 4.037-3.373 7.888-5.133 9.52-7.826 8.156-14.187-14.123-27.627-25.228-33.974-17.492-10.226-34.835-34.266-10.239-48.293 4.634-2.347 8.94-3.427 10.974-5.373 6.65-9.147-13.123-15.96-19.823-18.707-16.839-5.4-33.937-11.6-50.279-19.107-18.065-9.586-80.11-37.12-71.59-61.693 4.97-8.96 12.925-14.893 21.476-19.587 3.793-1.893 5.969-4.306 5.945-6.16-4.308-8.866-22.85-6.026-31.808-7.72-22.892-4.653-43.115-18-58.779-35.053-2.78-3.32-6.762-7.507-7.182-13.933.288-18.494 21.249-21.12 35.158-21.52l26.619-2.107c2.416-.36 6.116-.173 6.056-2.44-.075-1.013-.995-2.693-2.117-4.36-11.312-14.853-31.996-21.427-49.818-25.427-21.374-4.48-49.136-4.733-62.302-25.56-6.008-8.386-4.235-22.693 5.738-27.413 11.704-7.013 26.786-3.533 36.775-13 2.876-2.627 4.821-6.027 3.98-9.12-4.21-11.787-23.265-6.933-33.377-9.653-16.391-2.747-59.999-6.84-56.66-29.96 6.469-21.147 44.922-16.734 62.462-19.28 6.675-1.254 20.652-.014 20.103-9.614-1.295-8.973-12.777-10.8-20.01-13.613l-25.231-8.653c-16.56-5.574-35.582-9.8-45.635-25.627 10.444 15.667 29.235 19.307 45.955 24.587 9.757 2.96 29.077 9.106 38.146 12.6 6.406 2.2 12.619 11.44 6.652 17.506-5.526 4.654-13.109 4.68-19.748 5.534-17.158 1.88-36.032 1.213-51.588 8.76-7.677 3.453-10.153 13.44-3.197 18.413 21.813 15.48 50.936 12.8 76.31 17.16 12.467 3.027 15.138 17.227 5.673 25.08-10.85 12.907-39.016 5.227-43.566 22.427 1.586 27.986 39.496 27.986 60.812 32.386 18.216 3.667 35.995 9.68 50.143 22.52 10.35 9.68 12.616 23.614-4.933 24.414l-26.611 2.213c-8.868.827-17.999.827-23.472 5.213-18.479 13.227 31.483 42.4 42.92 46.04 14.835 6.867 32.421.32 46.328 10.28 2.36 1.747 4.733 5.187 4.616 9.014-.317 7.533-6.415 11.386-10.24 13.453-6.99 3.64-13.797 9.147-17.747 15.627-.806 10.6 13.334 18.226 21.488 24.506 29.52 19.627 61.543 33.947 95.408 44.667 10.907 4.547 26.86 9.747 26.95 24.453.213 9.16-11.867 13.134-17.019 15.347-6.837 3.32-9.728 10.387-6.301 16.813 3.301 6.654 10.157 12.347 17.146 17.027 15.108 8.173 39.595 25.92 27.243 45.627-5.537 7.92-15.01 7.986-14.621 17.746.469 7.08 5.572 14.654 10.696 21.467 8.761 10.267 15.624 34.947-2.731 40.173-8.987 1.28-12.557 3.454-9.672 13.014 6.18 10.76 20.313 16.226 27.397 27.48 11.603 14.306 16.24 33.986 17.295 51.506 1.721 19.24 21.536 23.947 33.548 36.747 7.176 6.533 7.383 18.44 7.076 26.907 1.51 18.6 23.895 22.813 33.987 37.026 5.576 8.027 7.401 16.96 12.148 23.774 4.477 6.52 13.67 9.386 20.456 16.266 13.756 12.187 12.165 35.227 24.78 46.294 6.548 4.813 16.505 2.986 25.073 8.026 8.745 5.747 8.865 16.6 15.897 21.294 14.7 9.733 34.099 7.986 51.159 8.173 4.463.027 8.94.16 13.401.6 2.012.24 4.988.107 6.446 2.613 1.213 2.4.388 4.947-.694 6.934-5.602 16.6-12.645 33.213-18.902 49.8"/></symbol>
<symbol id="icon_ui_mockingjay_arrow" viewBox="0 0 24 24" fill="currentColor"><path d="M1333.333 2075.053c-411.544 0-745.165-333.613-745.165-745.16 0-411.546 333.621-745.16 745.165-745.16 411.547 0 745.16 333.614 745.16 745.16 0 411.547-333.613 745.16-745.16 745.16zm0-1682.066c-517.437 0-936.904 419.466-936.904 936.906 0 517.44 419.467 936.907 936.904 936.907 517.44 0 936.907-419.467 936.907-936.907s-419.467-936.906-936.907-936.906"/>
  <path d="M959.592 1352.96c-4.064 23.867-10.684 49.093-28.877 65.08-18.264 16.053-45.543 19.32-68.736 12.027-23.194-7.307-42.555-23.934-57.287-43.28 2.667 51.306-7.16 102.32-11.656 153.493-4.496 51.16-3.164 104.907 20.007 150.747 21.246 42.04 59.009 73.52 99.37 97.8 40.362 24.28 84.076 42.48 125.088 65.64 75.544 42.666 140.61 101.306 204.994 159.453-93.044-116.88-137.743-270.48-181.034-413.467-2.62-8.653-5.19-18.253-1.385-26.453 8.677-18.707 36.552-11.213 55.035-2.08 103.412 51.12 225.836 62.547 336.929 31.453 59.773 130.374 84.44 277.334 54.56 417.614a2482.355 2482.355 0 0 1 82.16-116.854c7.52-10.066 15.973-20.68 28.08-24.106 51.867-14.654 127.68 95.466 159.613 125.88 53.787 51.213 111.294 99.12 175.76 136.4-92.906-99.48-188.026-202.414-236.346-329.667-36.427-95.933-46.88-206.253-115.227-282.8-4.987-5.587-10.467-11.347-12-18.68-1.133-5.427.053-11.027 1.4-16.4 17.947-71.693 62.853-133.173 106.773-192.613 38.08-51.534 76.16-103.08 114.254-154.627l75.24-101.84c24.546-33.2 49.173-66.533 77.906-96.173 22.48-23.2 47.32-43.987 70.774-66.2 82.053-77.734 146.36-172.214 204.226-269.307 6.627-11.12 10.507-29.827-1.986-33.24-106.134 119.187-244.574 209.333-396.52 258.16-80.707 25.933-150.427 48.587-230.934 75.133-43.72 14.414-86.906 31.147-127.426 53.134-26.014 14.133-70.414 65-101.147 55.266-19.947-6.306-33.747-23.893-48.67-38.573-49.35-48.547-123.406-74.52-153.517-136.853-10.1-20.92-14.164-44.214-16.328-67.334-3.658-39.12-2.19-78.546 1.182-117.68 10.312-119.693 38.498-237.826 83.337-349.266-13.19-11.334-33.175-.52-46.647 10.48-171 139.546-306.741 321.946-391.3 525.813-21.436 51.693-39.921 107.04-33.249 162.6 2.668 22.2 9.705 44.52 24.272 61.493 10.11 11.774 23.315 20.414 36.44 28.707 38.93 24.573 81.261 49.133 109.19 86.76 34.018 45.84 22.734 111.173 13.682 164.36"/>
  <path d="M1429.2 1007.427c-53.907 30.96-96.39 79.413-124.95 134.16-36.617 73.386-46.353 166.186-116.163 218.52-16.842 12.653-36.811 21.453-57.568 23.706 20.413-4.226 39.374-13.626 54.926-27.053 66.316-54.653 73.543-146.213 111.771-218.8 29.401-55.253 75.117-103.84 131.984-130.533m170.76 524.453c-37.587-55.72-98.773-90.533-165.853-94.507 67.026-9.506 139.84 32.027 165.853 94.507"/>
  <path d="m806.35 2226.227-9.311-14.734 1237.228-781.626 9.306 14.733-1237.222 781.627"/>
  <path d="M635.144 2358.733a3306.967 3306.967 0 0 1 90.36-113.186c9.907-11.867 29.092-45.16 43.756-49.36 15.779-4.52 43.71 16.413 53.63 26.613 14.985 15.4 23.922 36.827 23.125 58.293-71.244 33.2-138.566 46.827-210.871 77.64m1346.909-935.053c19.027-41.28 60.04-67.187 98.92-90.747 23.52-14.266 47.027-28.52 70.547-42.773 9.773-3.84-.147 14.44-4.387 20.64a600.11 600.11 0 0 0-40.866 69.36c-2.64 5.267-5.267 11.28-3.374 16.867 2.92 8.64 14.107 10.506 23.227 10.906l68.12 2.974c3.133.133 4.32 4.173 1.733 5.973-31.88 22.107-64.24 43.84-99.893 59.027-32.733 13.933-68.84 22.24-104.533 18.8-13.72-1.32-29.894-1.76-28.814-18.64.96-15.08 12.947-38.56 19.32-52.387m-213.946 149.96c14.333-31.093 45.24-50.613 74.52-68.36 17.72-10.747 35.44-21.493 53.16-32.227 7.36-2.893-.12 10.88-3.307 15.547a449.548 449.548 0 0 0-30.787 52.253c-2 3.974-3.973 8.507-2.546 12.707 2.2 6.52 10.626 7.92 17.493 8.227l51.333 2.24c2.36.093 3.24 3.146 1.307 4.493-24.027 16.653-48.413 33.04-75.267 44.467-24.666 10.506-51.866 16.76-78.76 14.173-10.333-1-22.506-1.333-21.706-14.053.72-11.36 9.76-29.054 14.56-39.467"/></symbol>
<symbol id="icon_ui_mockingjay_flight" viewBox="0 0 24 24" fill="currentColor"><path d="M1176.439 2044.133c-376.079 0-680.951-304.88-680.951-680.96 0-376.08 304.872-680.946 680.95-680.946 376.082 0 680.949 304.866 680.949 680.946 0 376.08-304.867 680.96-680.948 680.96zm0-1537.12c-472.848 0-856.167 383.32-856.167 856.16 0 472.854 383.319 856.174 856.167 856.174 472.854 0 856.16-383.32 856.16-856.174 0-472.84-383.306-856.16-856.16-856.16"/>
  <path d="M1541.32 909.147c-25.08 10.4-49.8 25.546-62.667 49.44-3.773 7.013-6.426 14.6-10.4 21.493-13.026 22.587-38.106 34.707-60.226 48.507-22.134 13.8-44.36 34.026-44.72 60.093-.16 12.293 4.68 24.04 9.786 35.227 7.747 17 16.534 33.973 29.987 46.933 9.12 8.8 20.067 15.44 30.987 21.88 118.533 69.88 245.093 100.8 380.853 116.093 17.893 2.014 35.867 4.027 53.867 3.374 17.44-.64 35.56-3.68 51.88 2.493 9.88 3.747 17.493 10.493 19.746 21.08 3.934 18.467-20.586 33.453 7.6 30.067 27.707-3.334 55.494-1.454 83.56 1.333 59.267 5.88 117.907 18.227 174.494 36.84 14.266 4.693 40.666 12.96 43.493 30.64.933 5.813-5.173 10.627-3.267 16.627 3.92 12.333 45.36 23.08 56.894 31.973 20.533 15.813 36.106 38.333 42.4 63.587.76 3.066 1.373 6.466-.04 9.293-2.2 4.413-7.974 5.32-12.894 5.693l-94.706 7c-5.907 3.574 2.186 11.24 7.653 15.427 14.8 11.347 8.333 37.08-7.347 47.173-15.693 10.107-35.76 9.227-54.373 7.987 8.48 7.213 6.867 21.627-.493 29.987-7.347 8.373-18.507 12.133-29.2 15.266a625.137 625.137 0 0 1-89.92 19.32c-3.04 12.614 20.48 19.6 17.88 32.307-1.24 6.04-7.894 9.08-13.747 11-36.733 12.08-75.827 16.947-114.4 14.24-3.853-.267-7.893-.587-11.4 1.027-10.627 4.893-7.12 21.36.707 30.026 7.84 8.68 18.96 16.414 19.6 28.08.72 13.027-13.294 22.92-26.32 22.96-13.04.054-25-6.693-36.44-12.92-11.454-6.226-23.987-12.293-36.934-10.733-16.52 1.987-30.293 16.093-46.933 15.813-8.227-.133-15.907-3.826-23.547-6.853-26.866-10.627-56.72-13.613-85.16-8.52-9.933 1.773-20.186 4.52-29.946 1.907-24.254-6.48-30.307-40.307-52.494-52.054-13.28-7.026-29.44-4.613-44.106-7.866-18.827-4.187-31.84-17.334-47.28-27.174-17-10.826-34.72-19.613-51.134-31.64-32.4-23.76-62.96-51.053-100.173-67.253-21.213-9.24-44.947-15.12-61.276-31.52-7.775-7.813-13.31-17.52-18.753-27.093-18.007-31.707-36.543-65.347-36.138-101.814.084-7.466.963-15.053-.766-22.32-1.73-7.266-6.872-14.373-14.234-15.64-5.56-.96-11.096 1.534-16.033 4.267-44.379 24.547-72.364 72.147-84.116 121.48-11.752 49.333-9.23 100.84-5.468 151.413 2.963 39.827 1.985 78.627 3.17 117.907 1.897 62.933-.75 125.987-7.833 188.547-3.02 26.666-6.85 53.32-7.212 80.16-.322 23.946 2.106 48.12-1.977 71.706-6.85 39.6-31.56 74.814-35.695 114.787-2.329 22.52 1.895 46.293-6.808 67.2-1.076 2.587-2.457 5.227-4.845 6.693-6.699 4.094-14.364-3.52-18.324-10.306-45.513-77.907-58.901-170.08-66.71-259.96-1.76-20.254-6.94-45.187-26.575-50.427-6.054-1.613-12.83-.973-18.198-4.213-3.836-2.307-6.349-6.267-8.432-10.227-8.36-15.907-11.992-34.267-10.321-52.16 1.93-20.667 9.243-41.613-.708-61.56-8.423-16.88-24.396-25.92-27.57-46.2-3.086-19.693 4.429-39.28 8.395-58.827 3.967-19.533 3.146-42.786-12.129-55.6-7.364-6.173-17.568-9.413-22.457-17.693-5.016-8.493-2.866-19.933-8.276-28.173-8.158-12.44-26.731-9.92-41.198-6.454-18.404 4.414-38.536 7.814-55.649-.266-7.11-3.36-13.564-8.654-21.36-9.694-6.061-.8-12.13 1.107-17.875 3.2-23.316 8.494-45.536 20.534-69.897 25.254-24.361 4.72-52.597.4-68.324-18.8-4.883-5.96-8.59-13.307-15.305-17.08-21.268-11.947-49.722 21.146-69.65 7.066-15.181-10.72-28.932-20.68-47.425-18.84-18.055 1.814-33.984 12.414-51.535 17.014-25.354 6.653-52.097.4-77.554-5.84-3.61-.88-7.822-2.32-8.791-5.907-.497-1.84.039-3.8.68-5.587 5.379-15.08 17.821-26.4 30.26-36.453 71.893-58.173 158.343-96.013 246.907-122.627 88.562-26.626 179.894-42.613 270.434-61.453 29.432-6.133 61.323-14.107 79.571-38 12.136-15.88 16.152-36.333 19.824-55.987 3.164-16.946 6.343-34.12 5.093-51.306-.265-3.654-.79-7.454-2.886-10.467-3.143-4.507-9.008-6.133-14.459-6.84-24.141-3.093-50.724 5.453-71.87-6.6-7.942-4.533-14.253-11.627-22.433-15.707-23.112-11.546-52.96 8.52-74.009-3.573-7.284-4.187-12.973-16.653-19.268-22.627-10.392-9.853-22.463-18.053-35.368-24.24-9.567-4.6-20.052-8.386-26.941-16.466-4.186-4.907-6.755-11.107-11.388-15.587-30.648-29.653-83.116-11.013-108.875-53.373-8.223-13.52-10.835-29.787-18.45-43.667-4.337-7.893-10.22-14.88-14.449-22.84-12.628-23.76-9.214-53.427-21.153-77.547-5.61-11.333-14.539-21.306-17.035-33.693-2.192-10.893.868-22.573-2.749-33.067-4.981-14.453-21.323-22.946-25.467-37.666-5.629-20 13.863-40.6 8.607-60.707-2.963-11.32-12.952-19.093-21.085-27.507-8.134-8.413-15.156-20.626-10.447-31.346 1.572-3.574 4.304-6.52 6.083-9.987 7.814-15.28-4.68-32.44-13.983-46.853-7.34-11.374-13.121-24.227-13.533-37.76-.412-13.534 5.376-27.787 16.901-34.894 8.272-16.813-4.832-30.493-12.844-47.44a461.19 461.19 0 0 1-20.172-49.973c-2.377-7.04-4.612-14.44-3.553-21.8 1.057-7.347 6.366-14.627 13.748-15.52 8.997-1.08 21.13 5.987 25.42-2 1.262-2.347 1.033-5.187.673-7.84-3.532-25.933-16.312-50.36-16.692-76.533-.055-3.76.39-8.014 3.347-10.32 2.192-1.72 5.196-1.894 7.756-2.987 6.477-2.773 8.85-10.72 9.389-17.747 1.35-17.6-13.241-107.413 27.556-65.24 7.427 7.68 13.35 16.667 19.564 25.294 6.592 9.16 21.93 38.693 36.236 31.546 13.247-6.626.768-23.106 19.245-23.373 6.2-.08 17.167 6.04 22.424 9.173 14.464 8.64 25.004 23.734 33.396 37.947a504.76 504.76 0 0 1 41.314 88.72c3.792 10.773 9.082 23.4 20.301 25.507 9.135 1.733 17.63-4.574 26.561-7.147 20.76-6 42.802 9.68 51.563 29.427 14.26 32.146-6.667 68.64 15.563 98.186 3.562 4.734 7.98 8.747 11.828 13.254 26.682 31.24 21.758 79.226 42.762 114.533 1.587 2.667 3.414 5.347 6.103 6.907 7.967 4.586 17.728-2.84 26.895-2.107 11.542.92 17.725 13.693 21.613 24.6 6.67 18.707 13.339 37.4 20.007 56.107 6.853 19.226 19.225 47.026 44.025 44.84 8.43-.747 14.699-6.92 23.51-6.8 14.086.2 29.14 12.013 39.397 20.56 24.932 20.76 44.825 47 69.49 68.08 24.666 21.093 56.732 37.226 88.702 31.68 23.869-4.147 44.4-19.96 59.409-38.987 5.388-6.827 9.644-18.04 2.524-23.04-2.197-1.547-4.975-1.947-7.645-2.227-30.05-3.053-61.163 6.107-84.775 24.934 6.648-19.454 22.43-34.4 39.253-46.227 31.283-21.96 68.178-35.867 106.176-40 55.804-6.08 111.991 8.56 168.071 5.933 27.587-1.293 54.707-6.773 82.08-10.04 19.8-2.373 55.24-9.28 72.773 1.88-10.826 19.88-59.453 27.414-78.773 35.414"/></symbol>
<symbol id="icon_ui_uturn" viewBox="0 0 24 24" fill="currentColor"><path fill-rule="evenodd" clip-rule="evenodd" d="M9.53 2.47a.75.75 0 0 1 0 1.06L4.81 8.25H15a6.75 6.75 0 0 1 0 13.5h-3a.75.75 0 0 1 0-1.5h3a5.25 5.25 0 1 0 0-10.5H4.81l4.72 4.72a.75.75 0 1 1-1.06 1.06l-6-6a.75.75 0 0 1 0-1.06l6-6a.75.75 0 0 1 1.06 0Z"/></symbol>
</svg>