<svg xmlns="http://www.w3.org/2000/svg" style="display: none;"><symbol id="icon-broken_bone" viewBox="0 0 512 512"><path d="M301.486 20.37l-33.19 134.755 15.306 49.895 43.55-103.81-25.666-80.84zM161.324 43.46l2.03 110.69 90.68 36.516-92.71-147.207zm180.358 126.73l-29.532 40.572 85.268-39.008-55.736-1.563zm-99.346 39.134c-59.628 41.982-124.36 74.982-199.207 81.297-13.185 1.113-21.704 8.3-26.302 15.185-13.788 20.652 8.285 51.02 54.332 33.37-55.518 33.324-8.274 81.184 25.113 43.495 34.24-38.648 74.95-74.53 117.74-91.58l12.696-28.235-32.81 6.272 48.436-59.803zm59.62 21.973l120.356 61.736-8.443-53.13-111.913-8.606zm-19.214 25.398l5.78 34.688-40.055-13.627c70.405 49.457 118.18 111.73 161.883 190.79 22.65 40.976 71.903 6.46 34.275-34.278 41.4 33.974 78.094-24.99 40.883-40.883-63.653-27.187-118.033-62.682-150.73-109.434h-.003l-52.033-27.255zm-53.697 46.844v.003l.002-.004h-.002zm0 .003l-60.248 79.27 46.773-10.303 13.475-68.967zm18.963.934l18.996 118.392 36.414-19.62-55.41-98.773z"/></symbol><symbol id="icon-infection" viewBox="0 0 512 512"><path d="M233.656 22.094c-13.884.19-28.38 2.95-42.97 8.843 30 .765 65.91 7.887 84.97 31.22 8.688 10.636 11.745 27.18 10 44.062 1.995 1.7 3.902 3.464 5.72 5.28 3.9 3.9 7.358 8.075 10.374 12.47 2.473-.76 5.003-1.38 7.563-1.845 4.732-.858 9.63-1.285 14.593-1.28 3.103 0 6.236.192 9.375.53 10.447-50.18-36.918-98.625-96.842-99.28-.92-.01-1.856-.014-2.782 0zM203.186 95c-15.846.105-29.938 4.536-39.31 13.906-10.155 10.152-13.038 23.736-10.75 39.188.014.05.015.105.03.156 3.632 12.436 9.568 22.548 18.563 29.47 9.19 7.07 21.93 11.32 40.81 10.31 24.243-1.287 44.017 5.027 58.157 16.157 7.786-4.726 16.25-8.435 25.157-10.906 6.824-23.556.928-49.983-17.688-68.593-13.622-13.617-36.4-24.738-58.656-28.374-5.564-.91-11.03-1.348-16.313-1.313zm-67.092 26.125c-36.665 3.137-65.013 16.806-77.188 58.313-7.66 26.115-8.875 48.963-37 42.312 13.805 21.97 35.546 21.773 51.938-.656 2.116-31.247 23.968-60.177 60.22-77-.498-7.816.06-15.584 2.03-22.97zm187.75 18.47c-3.887-.025-7.656.296-11.188.936-.622.114-1.24.247-1.844.376 5.944 14.818 7.712 30.933 5.313 46.53L318.47 190c1.865-.037 3.74-.044 5.592.03 14.12.574 27.756 4.417 39.907 10.97 6.124-8.08 14.654-13.623 24-16.188-4.018-16.57-14.876-28.428-28.75-36.062-10.943-6.02-23.716-9.085-35.376-9.156zm111.094 15.718c-10.65-.035-22.264 3.12-34.47 9.75 2.88 5.69 5.06 11.92 6.376 18.656 5.33.822 10.604 2.593 15.53 5.436.342.197.667.42 1 .625 31.248-10.763 50.928 7.43 70.126 41.282-3.826-47.476-26.85-75.648-58.563-75.75zm-296.407 7.562c-34.192 17.036-49.508 44.107-45.624 71.188 6.8 47.39 54.347 88.916 127.906 80.375 40.473-4.73 57.84-33.015 56.625-59.282-.606-13.133-6.022-25.582-16.312-34.625-10.29-9.04-25.668-15.007-47.594-13.843-22.24 1.19-40.093-4.082-53.186-14.156-10.115-7.78-17.108-18.17-21.813-29.655zm261.376 38.906c-.635 0-1.275.02-1.906.064-7.11.492-13.873 3.88-18.563 9.687 12.788 10.704 22.776 24.935 28.25 41.75 6.082-1.892 11.504-5.998 14.97-12 7.316-12.67 3.046-28.624-9.626-35.936-4.157-2.4-8.675-3.548-13.124-3.563zm-79.22 6.814c-6.33-.01-12.773.812-19.186 2.53-6.16 1.652-12.062 4.055-17.594 7.095 7.51 10.74 11.598 23.335 12.188 36.093.61 13.195-2.598 26.637-9.344 38.625 14.722 8.054 24.75 23.693 24.75 41.562 0 12.122-4.618 23.225-12.188 31.625 15.78 8.356 32.223 11.792 45.907 8.125 18.044-4.835 32.42-21.747 40.81-43.688 8.393-21.94 10.268-48.213 5.033-67.75-8.508-31.746-36.493-52.947-67.657-54.156-.9-.035-1.814-.06-2.72-.062zm105.377 56.062c-4.356 3.1-9.218 5.382-14.313 6.78 1.583 11.985 1.287 24.688-.688 37.252 25.354 13.418 30.89 27.678 22.657 54.937-16.6 54.96 19.597 83.604 54.56 65.125-32.506-9.75-28.104-27.133-20.56-58.188 12.61-51.91-4.718-81.086-41.658-105.906zM85 269.5c-5.774 1.98-11.213 5.275-15.844 9.906-16.14 16.137-16.142 42.08 0 58.22 2.552 2.55 5.35 4.694 8.313 6.437 9.93-14.787 20.88-29.138 34.874-40.657C100.827 293.713 91.594 282.19 85 269.5zm190.438 38.625c-9.886 10.296-23.166 18.38-39.657 22.53-.166 1.262-.28 2.536-.28 3.845-.002 15.91 12.732 28.657 28.656 28.656 15.925 0 28.656-12.743 28.656-28.656.002-11.91-7.12-22.03-17.375-26.375zm-138.563 11.313c-6.775 36.136 8.59 62.088 28.938 72.75 13.032 6.828 28.22 7.607 43 .28 8.532-4.23 17.05-11.36 24.656-22.03-10.166-8.704-16.66-21.6-16.657-35.938v-.875l-.032-.03c-30.54 2.5-57.68-3.067-79.905-14.158zm-19.313 4.437c-11.573 11.33-21.445 25.583-31.25 40.75-18.82 36.482-17.525 82.327 20.657 111.47 31.69 24.19 77.54 21.817 99.968 5.405 19.914-14.573 25.155-45.586 6.812-68.97 4.42 16.066-4.613 41.808-18.5 49.345-16.21 8.8-38.286 7.45-56.625-12.656-21.554-23.633-18.893-43.104-3.625-58.876-13.2-16.448-20.353-39.638-17.438-66.47zm169.032 56.656c-11.754 43.65 16.39 92.464 79.156 95.5-31.95-16.928-51.635-50.344-46.813-82.936-11.11-2.13-22.064-6.57-32.343-12.563z"/></symbol><symbol id="icon-poison_bottle" viewBox="0 0 512 512"><path d="M181.78 33v51.53h149.407V33H181.78zm14.19 70.22c-.66 2.9-1.554 5.263-2.75 6.936-2.684 3.75-7.033 6.594-19.5 6.594-21.54 0-40.804 5.862-55.157 16.094-14.353 10.232-23.907 25.398-23.907 42.5V426.75c0 32.34 26.255 58.625 58.594 58.625h213.47c32.338 0 58.592-26.286 58.592-58.625V175.344c0-17.102-9.527-32.2-23.593-42.438-14.067-10.237-32.83-16.156-53.44-16.156-16.69 0-23.62-3.488-26.874-7.188-1.41-1.604-2.43-3.698-3.156-6.343h-19.125c1.073 6.658 3.37 13.137 8.25 18.686 8.11 9.223 21.523 13.53 40.906 13.53 16.978 0 32.056 5.008 42.44 12.564 10.38 7.556 15.905 17.1 15.905 27.344V426.75c0 22.355-17.55 39.938-39.906 39.938H153.25c-22.355 0-39.906-17.583-39.906-39.938V175.344c0-10.245 5.455-19.72 16.062-27.28 10.607-7.563 26.22-12.626 44.313-12.626 15.962 0 28.056-5.142 34.686-14.407 3.904-5.455 5.733-11.545 6.625-17.81h-19.06zm66.093 45.405c-30.545 0-50.062 12.865-63.282 32.313-12.295 18.09-18.387 42.315-19.186 66.062 25.033 12.795 39.555 27.632 43.844 44.97.734 2.967 1.173 5.942 1.312 8.905 9.01 5.134 23.22 8.44 37.813 8.438 12.935-.002 26.08-2.538 36.093-6.875.152-3.325.617-6.662 1.47-10 4.486-17.583 19.028-33.2 44.405-45.563-.838-22.46-6.793-46.595-19-64.938-13.2-19.84-32.745-33.312-63.467-33.312zM232.188 223.5c9.157 0 16.593 7.405 16.593 16.563 0 9.157-7.435 16.593-16.593 16.593-9.157 0-16.562-7.436-16.562-16.594 0-9.157 7.405-16.562 16.563-16.562zm55.437 0c9.158 0 16.594 7.405 16.594 16.563 0 9.157-7.438 16.593-16.595 16.593-9.158 0-16.563-7.436-16.563-16.594 0-9.157 7.405-16.562 16.563-16.562zm-28.844 33.594c6.275 13.248 11.25 26.503 13.72 39.75-9.148-3.022-18.29-3.426-27.438 0 3.34-13.25 7.352-26.504 13.72-39.75zm-37.03 63.47c-2.136 6.42-5.285 12.778-9.188 19.03 11.93 7.99 31.58 12.81 50.875 12.594 18.97-.214 36.878-5.57 46.22-12.407-3.55-5.764-6.412-11.8-8.344-18-11.947 4.416-25.424 6.375-38.75 6.376-14.447.002-28.77-2.222-40.813-7.594zm-70.656 17.06c-8.9 11.268-12.694 22.493-10.03 36.313 68.925 5.54 164.194 31.92 226.686 60.75 9.16-11.166 12.518-22.67 9.97-36.78-67.77-6.867-164.135-28.736-226.626-60.282zm216.594 0c-20.79 10.496-45.326 19.907-71.313 28.063 20.298 4.434 40.253 8.04 58.72 10.688 7.782-1.026 15.357-1.853 22.624-2.438 2.66-13.82-1.133-25.045-10.033-36.312zm-203.75 57.532c-7.904 1.084-15.56 2.01-22.875 2.75-2.55 14.11.81 25.615 9.968 36.78 21.375-9.86 46.575-19.447 73.25-27.998-20.87-4.912-41.385-8.868-60.343-11.532z"/></symbol><symbol id="icon-burned" viewBox="0 0 512 512"><path d="M272.95 16.707c-151.29 47.714 57.322 110.88-26.536 131.344C190.7 161.648 137.3 96.283 192.947 45.313c-90.766 32.524-66.292 89.67-12.396 113.25 34.31 15.01 31.884 61.38 8.643 64.637 46.37-54.285-116.637-44.737-86.03-147.47-126.44 158.063 132.535 163.37 51.6 273.194 16.4-51.26-51.074-33.42-65.52-77.88-48.557 115.975 86.87 96.047 107.81 222.95h36.394l-7.375-108.703H196.93c0-49.724 3.178-108.336 45.2-116.245-7.75-9.352-12.786-24.51-12.786-39.207 0-26.536 15.774-48.523 35.98-51.15h.002c1.348-.17 2.78 0 4.164 0 22.13 0 40.145 22.846 40.145 51.15 0 14.334-4.772 29.304-12.192 38.613 45.905 7.12 44.903 66.976 44.903 116.84H314.69l-6.524 108.704h36.752c14.29-138.24 137.056-121.245 77.576-235.742 9.728 46.034-32.646 93.67-53.514 52.13-19.04-37.903 125.515-105.092 70.21-215.175 4.588 81.484-114.155 120.303-118.663 65.824 52.768 23.022 73.61-45.905 30.02-71.985-40.69-24.346-116.444-36.76-77.596-72.338zm69.488 20.635c44.895 15.685 63.888 78.675 48.73 110.674 18.238-3.568 70.807-106.98-48.73-110.674z"/></symbol><symbol id="icon-spinning_top" viewBox="0 0 512 512"><path d="M81.524 176.5C47.946 133.786 38.598 114.37 36 106.534a27.408 27.408 0 0 1 30.514-7.851l230.6 84.722a52.994 52.994 0 0 1 31.474 31.474l84.722 230.6a27.408 27.408 0 0 1-7.851 30.514c-7.794-2.584-27.252-11.946-69.966-45.524-40.342-31.714-87.815-74.428-133.664-120.277-45.848-45.849-88.59-93.35-120.305-133.692zm104.307 149.676c-49.576-49.577-96.569-102.245-128.905-144.494a692.302 692.302 0 0 1-13.259-17.862l47.91 109.842a164.502 164.502 0 0 1 4.59 119.783l-11.932 34.313 34.313-11.932a164.502 164.502 0 0 1 119.783 4.59l109.842 47.91a692.283 692.283 0 0 1-17.862-13.26c-42.234-32.363-94.903-79.356-144.48-128.932zm281.56-281.56a29.413 29.413 0 0 0-41.585 0L387.33 83.08l41.556 41.556 38.52-38.52a29.413 29.413 0 0 0 0-41.556zM339.319 187.712l60.35-60.35-15.066-15.01-60.35 60.293a73.92 73.92 0 0 1 15.066 15.067z"/></symbol><symbol id="icon-wounded" viewBox="0 0 512 512"><path d="M383.594 20.313c-28.797 0-57.576 10.982-79.53 32.937L53.093 304.188c-43.91 43.912-43.91 115.184 0 159.093 43.91 43.91 115.214 43.912 159.125 0l250.936-250.936c43.91-43.913 43.91-115.185 0-159.094-21.955-21.954-50.765-32.937-79.562-32.938zm9.97 23.812c3.18 0 6.352 1.23 8.78 3.656 4.853 4.855 4.853 12.71 0 17.564-4.854 4.853-12.71 4.853-17.563 0-4.852-4.854-4.852-12.71 0-17.563 2.428-2.426 5.6-3.655 8.783-3.655zm34.155 34.156c3.18 0 6.353 1.2 8.78 3.626 4.854 4.854 4.854 12.74 0 17.594-4.854 4.854-12.74 4.854-17.594 0-4.853-4.854-4.853-12.74 0-17.594 2.427-2.427 5.632-3.625 8.813-3.625zm-69.314 1c3.18 0 6.354 1.23 8.78 3.657 4.855 4.854 4.855 12.71.002 17.563-4.854 4.854-12.71 4.854-17.563 0-4.854-4.854-4.854-12.71 0-17.563 2.427-2.426 5.6-3.656 8.78-3.656zm34.156 34.157c3.182 0 6.354 1.198 8.782 3.626 4.853 4.853 4.853 12.74 0 17.593-4.854 4.854-12.74 4.854-17.594 0-4.854-4.853-4.854-12.74 0-17.594 2.427-2.426 5.63-3.625 8.813-3.624zm71.813 1.5c3.18 0 6.354 1.23 8.78 3.657 4.855 4.853 4.855 12.71 0 17.562-4.852 4.854-12.708 4.854-17.56 0-4.855-4.853-4.855-12.71 0-17.562 2.426-2.427 5.6-3.657 8.78-3.656zm-142.625 1c3.18 0 6.354 1.23 8.78 3.657 4.855 4.853 4.855 12.71 0 17.562-4.852 4.854-12.74 4.854-17.592 0-4.854-4.853-4.854-12.71 0-17.562 2.426-2.427 5.63-3.657 8.812-3.656zm34.125 34.157c3.18 0 6.385 1.23 8.813 3.656 4.853 4.854 4.853 12.71 0 17.563-4.854 4.853-12.74 4.853-17.594 0-4.854-4.854-4.854-12.71 0-17.563 2.427-2.427 5.6-3.656 8.78-3.656zm73.344 0c3.18 0 6.353 1.23 8.78 3.656 4.854 4.854 4.854 12.71 0 17.563-4.854 4.853-12.71 4.853-17.563 0-4.853-4.854-4.853-12.71 0-17.563 2.427-2.427 5.6-3.656 8.782-3.656zm-194.814 4.5l13.22 13.22-73.907 73.905-13.22-13.22 73.906-73.906zm55.78 0l73.908 73.906-13.22 13.22-73.905-73.907 13.217-13.22zm102.377 32.156c3.18 0 6.353 1.23 8.78 3.656 4.854 4.854 4.854 12.71 0 17.563-4.853 4.852-12.74 4.852-17.593 0-4.854-4.855-4.854-12.71 0-17.564 2.427-2.427 5.63-3.656 8.813-3.656zm-41.688 84.28l13.22 13.22-73.94 73.938-13.186-13.22 73.905-73.937zm-177.156.033l73.905 73.906-13.22 13.217L160.5 284.25l13.22-13.188zm-42.25 35.156c3.18 0 6.353 1.196 8.78 3.624 4.854 4.853 4.854 12.74 0 17.594-4.854 4.853-12.71 4.853-17.563 0-4.853-4.854-4.853-12.74 0-17.594 2.427-2.427 5.6-3.625 8.782-3.625zm34.155 34.155c3.18 0 6.354 1.198 8.78 3.625 4.855 4.854 4.855 12.74 0 17.594-4.852 4.853-12.708 4.853-17.56 0-4.855-4.854-4.855-12.74 0-17.594 2.426-2.427 5.6-3.625 8.78-3.625zm-69.313 1c3.182 0 6.354 1.198 8.782 3.625 4.853 4.854 4.853 12.74 0 17.594-4.854 4.853-12.71 4.853-17.563 0-4.852-4.854-4.852-12.74 0-17.594 2.428-2.427 5.6-3.625 8.782-3.625zm34.157 34.156c3.18 0 6.353 1.2 8.78 3.626 4.854 4.854 4.854 12.74 0 17.594-4.854 4.854-12.71 4.854-17.563 0-4.853-4.854-4.853-12.74 0-17.594 2.427-2.427 5.6-3.625 8.782-3.625zm71.81 1.5c3.182 0 6.355 1.2 8.782 3.626 4.854 4.854 4.854 12.74 0 17.594-4.853 4.854-12.708 4.854-17.562 0-4.854-4.854-4.854-12.74 0-17.594 2.427-2.427 5.6-3.625 8.78-3.625zm-142.624 1c3.18 0 6.354 1.2 8.782 3.626 4.853 4.854 4.853 12.74 0 17.594-4.854 4.854-12.71 4.854-17.563 0-4.854-4.854-4.854-12.74 0-17.594 2.427-2.427 5.6-3.625 8.78-3.625zm34.157 34.158c3.18 0 6.353 1.197 8.78 3.625 4.854 4.853 4.854 12.74 0 17.593-4.853 4.854-12.708 4.854-17.562 0-4.852-4.853-4.852-12.74 0-17.594 2.428-2.426 5.6-3.625 8.782-3.625zm73.312 0c3.18 0 6.354 1.197 8.78 3.625 4.855 4.853 4.855 12.74 0 17.593-4.852 4.854-12.708 4.854-17.56 0-4.855-4.853-4.855-12.74 0-17.594 2.426-2.426 5.6-3.625 8.78-3.625zm-36.656 36.656c3.18 0 6.353 1.23 8.78 3.656 4.854 4.854 4.854 12.71 0 17.563-4.854 4.853-12.71 4.853-17.563 0-4.853-4.854-4.853-12.74 0-17.594 2.427-2.428 5.6-3.626 8.782-3.626z"/></symbol><symbol id="icon-high_shot" viewBox="0 0 512 512"><path d="M492.656 20.406l-118.594 56.22L413.875 86l-86.97 86.97-305.5 259.374.69.687 104.75-47.467-46.376 105.843.905.906 272.5-319.875 73.22-73.218 9.342 39.81 56.22-118.624zm-473.25.063c-1.347 23.43 5 39.947 16.563 52.218l24.093 302.28 17.562-14.874-21.72-272.438c57.975 31.954 169.096 25.165 216.907 106.72l66.625-56.564 1.22-1.218C292.74 38.666 86.01 99.716 19.406 20.47zm359.531 151.56l-1.156 1.157-57.25 67.188c82.006 47.945 75.587 159.267 107.283 218.03l-272.157-24.5-14.812 17.408 301.562 27.125c12.48 12.283 29.4 19.084 53.688 17.687-79.95-67.2-18.36-275.754-117.156-324.094z"/></symbol><symbol id="icon-starving" viewBox="0 0 512 512"><path d="M153.063 21.74a19.46 28.32 83.178 0 1-23.98 13.947 19.46 28.32 83.178 0 1-27.68-9.18c-1.236 5.62-1.713 12.016-1.163 19.15 3.247 42.106-10.16 118.603 107.54 132.268-41.45 32.308-27.99 64.745-18.467 97.258-33.296-1.63-53.61 23.1-62.577 45.982-97.49-13.226-79.727 121.682-78.574 148.143 1.086 24.9 52.413 28.33 54.285 6.39 3.667-42.972-10.243-104.27 29.207-94.132 22.28 5.724 62.243 53.447 161.366 51.377 140.028-2.926 263.475-321.36 81.64-351.272-63.3-10.412-148.19 37.224-148.19 37.224-67.307 6.347-67.29-24.454-70.937-82.172-.357-5.654-1.216-10.638-2.47-14.983zM137.59 350.176h254.305c-16.912 28.374-52.22 66.58-114.563 65.668-58.09-.85-103.54-18.614-139.742-65.668z"/></symbol><symbol id="icon-electrocuted" viewBox="0 0 512 512"><path d="M85.29 43.576C48.624 43.576 19.1 73.1 19.1 109.764c0 32.52 23.233 59.404 54.07 65.068l22.183 55.457-4.574 77.75 25.43-67.034 55.226-9.64-9.563 33.42-40.523 43.005 13.673 21.073-34.566 63.21 42.22 40.665-13.253-46.91 18.79-36.637 35.946 55.394-33.98-97.47 23.494-21.698 31.353 23.313c3.106-17.068 9.03-33.16 17.264-47.785l-23.878-5.95 7.818-29.7 52.002-9.076 16.733 14.202 28.564 25.223-12.37 14.01-31.537-27.846c-23.768 24.428-38.396 57.798-38.396 94.65 0 75.047 60.638 135.683 135.685 135.683 75.048 0 135.684-60.636 135.684-135.684 0-62.56-42.135-115.1-99.627-130.856l9.268 24.535 56.23 38.493-59.55 84.092-15.252-10.8 48.578-68.597-45.412-31.088-15.373-40.695c-.076-.008-.15-.018-.226-.025l-.55-2.03-5.584-14.78 43.95-11.47 24.723 30.344-5.058-55.688-67.59 16.438-5.533-20.354-106.79 4.165 3.104-14.223 37.72-40.457 47.858 3.623-49.888-30.36-50.307 48.028-67.222-1.027c-.297 6.424-1.317 12.665-2.974 18.645l65.802 1.004-7.5 34.38 116.063-4.526 10.23 37.64c-.008 0-.018.003-.028.003l16.553 48.63 40.404 28.473-36.286 50.028-15.13-10.973 25.163-34.69-29.887-21.066-19.857-58.34c-15.34 2.762-29.77 8.1-42.844 15.542l-26.13-22.18-52.185 9.108 6.605-25.094-39.216-8.52-47.223-14.714.024-.02-38.445-12.154 5.632-17.82 44.736 14.14c5.04-9.348 7.897-20.06 7.897-31.464 0-36.665-29.52-66.188-66.186-66.188zm26.454 126.887l26.526 8.264 44.187 14.123-5.31 18.548-64.704 11.293-18.906-47.266c6.403-.79 12.515-2.486 18.207-4.96z"/></symbol><symbol id="icon-plain_dagger" viewBox="0 0 512 512"><path d="M43.53 15.75c-15.73 0-28.31 12.583-28.31 28.313 0 14.086 10.092 25.644 23.5 27.906L42.687 68 68.81 41.906l2.626-2.625C69.188 25.86 57.63 15.75 43.53 15.75zm33.72 44.125l-17 17c15.885 39.37 43.45 66.684 78.75 87.406 8.167-8.585 16.65-16.898 25.438-24.936-22.488-35.103-51.535-62.294-87.188-79.47zM322.594 79.03l-51.25 4.314c-79.356 48.134-143.878 108.1-186.72 186.53l-4.31 51.47 44.155-18.656-2.94-34.094-.25-3.063 1.626-2.624c35.94-58.47 79.93-109.41 141.5-141.25l2.406-1.25 2.688.25 34.125 2.906 18.97-44.53zm-62.438 66.376c-10.008 5.886-19.5 12.338-28.562 19.313 46.688 47.93 87.208 108.588 114.72 166.5l11.248 23.717-23.718-11.28c-57.995-27.554-117.918-67.57-165.688-113.907-7.155 9.404-14.028 19.174-20.625 29.28 101.918 94.91 227.05 177.304 347.845 234.69-57.063-120.125-140.038-246.18-235.22-348.314zm-43.03 31.22c-13.37 11.703-25.72 24.58-37.282 38.436 39.36 38.452 88.085 72.83 136.687 98.844-26.054-48.633-60.754-97.847-99.405-137.28z"/></symbol><symbol id="icon-spiked_mace" viewBox="0 0 512 512"><path d="M246.47 16.29l43.774 85.93 40.65-42.927L246.47 16.29zm179.84 23.823l-13.472 13.47 46.807 46.808 13.48-13.46-46.816-46.817zm-52.42.95L113.88 315.656l81.65 81.653L471.808 138.98l-97.918-97.92zm-3.097 50.57c12.955 0 25.912 4.916 35.742 14.746 19.66 19.66 19.66 51.82 0 71.48-19.66 19.662-51.822 19.662-71.482 0-19.66-19.66-19.66-51.82 0-71.48 9.83-9.83 22.785-14.747 35.74-14.747zM167.367 104.97l42.176 82.48 38.86-41.044-81.036-41.437zm203.426 5.235c-8.134 0-16.266 3.13-22.525 9.39-12.52 12.518-12.52 32.533 0 45.05 12.518 12.52 32.534 12.52 45.052 0 12.52-12.517 12.52-32.532 0-45.05-6.26-6.26-14.394-9.39-22.527-9.39zM286.88 177.14c12.524.03 25.056 4.813 34.57 14.327 19.026 19.027 19.13 50.124.146 69.107-18.983 18.983-50.08 18.88-69.108-.148-19.027-19.027-19.13-50.124-.146-69.108 9.49-9.49 22.01-14.21 34.537-14.18zm166.58 4.58l-43.43 40.608 86.58 44.102-43.15-84.71zM88.927 194.88l39.957 77.75 36.445-38.487-76.402-39.264zm197.926.83c-7.704-.02-15.394 2.922-21.295 8.823-11.804 11.803-11.776 30.756.146 42.678 11.923 11.923 30.875 11.953 42.678.15 11.804-11.804 11.777-30.756-.146-42.678-5.96-5.962-13.68-8.95-21.382-8.97zm-84.237 67.6c12.01.068 24.032 4.693 33.164 13.825 18.263 18.264 18.496 48.085.324 66.258-18.173 18.172-47.994 17.94-66.258-.325-18.264-18.264-18.497-48.085-.325-66.257 9.088-9.086 21.085-13.57 33.095-13.5zm163.38.194l-41.893 39.17 83.843 42.873-41.95-82.043zM202.55 281.88c-7.187-.047-14.342 2.674-19.814 8.145-10.942 10.943-10.884 28.62.325 39.83 11.21 11.207 28.886 11.265 39.83.323 10.94-10.943 10.883-28.62-.326-39.828-5.604-5.605-12.825-8.42-20.013-8.47zm75.343 64.003l-39.666 37.088 79.8 41.01-40.134-78.097zm-158.784 1.43L18.93 447.493V494.9h45.648l101.13-100.988-46.6-46.6z"/></symbol><symbol id="icon-harpoon_trident" viewBox="0 0 512 512"><path d="M15.156 20.188v31.53l184.25 184.25c-41.923 39.194-88.97 72.054-140.78 98.97 36.513 36.514 75.78 66.42 115.06 88.937l-12.78 18.188c30.91 17.08 63.24 26.78 94.47 29.062l-6.75 18.438c45.523 11.287 89.863 6.127 124.093-13.407-62.906-12.69-145.827-62.325-221.283-137.78L218 271.812l51 38.875-15.53 15.53 78.655 41.282-11.875 11.875 110.438 57.97c.036-.038.088-.058.125-.095.036-.037.057-.088.093-.125l-57.97-110.438-12.436 12.438-41.313-78.656-14.937 14.936-38.844-50.97 66.563-66.56c75.934 75.934 125.71 159.42 138 222.468 21.26-34.686 27.21-80.535 15.53-127.656l-18.344 6.687c-2.28-31.238-11.977-63.578-29.062-94.5l-20.97 14.75c-22.483-39.11-52.267-78.206-88.624-114.563-27.512 52.326-60.066 98.53-97.344 138.938L47.876 20.187h-32.72z"/></symbol><symbol id="icon-fizzing_flask" viewBox="0 0 512 512"><path d="M365.47 18.727c-11.353-.18-21.053 7.365-24.786 20.058h-.002c-24.423-7.6-57.52-4.092-68.328 19.856-15.69-20.86-47.866-13.98-55.194 9.85-7.328 23.828 13.462 49.474 44.68 48.55-3.078 33.98 44.304 54.69 81.764 39.132-.473 19.307 8.312 41.853 30.37 44.97-6.395 18.11 3.104 42.047 28.614 42.047 31.47 0 38.024-36.316 21.025-53.145 9.474-10.39 12.832-25.167 11.096-39.13 17.282 12.104 34.59-6.52 33.767-20.08-1.516-24.97-20.366-35.97-33.768-24.3-8.8-27.616-37.243-32.007-52.562-16.353 1.35-7.425.2-13.105-5.255-19.274 22.605-5.702 18.913-37.698 4.68-46.904-5.44-3.517-10.942-5.195-16.102-5.277zm68.37 5.13c-22.7 0-22.882 34.655 0 34.655s22.7-34.655 0-34.655zM177.672 74.842c-22.7 0-22.882 34.654 0 34.654s22.7-34.654 0-34.654zm64.695 59.38c-1.695.06-3.792.895-5.877 2.887-4.765 4.554-8.11 13.804-1.814 24.216 1.365 2.257 2.837 4.486 4.408 6.672l-14.21 26.414-34.43 59.637-153.62 87.682-.008.006c-11.038 6.375-16.508 14.786-17.537 24.037-1.03 9.254 2.46 20.22 13.083 31.508 45.295 48.134 101.19 77.71 164.907 95.106 15.645 4.267 26.47 2.614 33.156-2.1 6.686-4.712 11.047-13.382 11.047-28.413v-.006l.214-177.61 38.008-65.832c-14.036-3.907-26.16-10.638-36.332-18.932l8.967-16.67c13.568 12.152 31.753 20.64 55.14 20.645 11.536-.03 18.363-7.457 20.046-13.542.84-3.044.414-5.247-.604-6.73-1.018-1.48-3.004-3.204-8.754-3.66-31.006-2.452-53.782-15.764-68.293-39.714-2.816-4.65-5-5.413-6.797-5.584-.224-.02-.46-.028-.7-.02zm234.053 39.305c-22.7 0-22.882 34.655 0 34.655s22.7-34.655 0-34.655zm-44.668 86.022c-35.27 0-35.553 53.837 0 53.837s35.27-53.838 0-53.838zm-235.256 8.337l9.367 16.172-136.506 79.06-.005.003c-4 2.31-4.756 3.894-5.043 5.127-.29 1.233-.127 3.423 1.852 7.027.543.988 1.228 2.044 2.024 3.15l-.416-.193c18.068 27.077 54.2 61.967 89.34 80.934-23.56-10.45-50.91-25.15-72.737-40.756C69.11 407.5 56.51 396.524 49.78 384.272c-3.363-6.124-5.332-13.14-3.673-20.262 1.66-7.123 6.93-13.046 13.9-17.07l136.49-79.053zm-88.068 88.87c18.55 6.4 52.894 25.26 80.154 46.013 13.63 10.375 25.305 20.885 32.086 31.998 3.022 4.952 5.264 10.303 5.2 16.203l-20.626-9.488c-9.495-11.61-23.806-22.776-35.75-29.517-24.435-17.28-54.436-33.15-67.16-37.54l6.096-17.667z"/></symbol><symbol id="icon-hypodermic_test" viewBox="0 0 512 512"><path d="M429.125 19.313l-103.22 117.812-29.5-25.938-7-6.156-6.155 7-157.125 177.845c-1.513-12.86-7.577-25.217-18.03-34.375-11.208-9.816-25.404-14.166-39.25-13.25-13.85.916-27.342 7.106-37.157 18.313-19.632 22.413-17.35 56.773 5.062 76.406 20.25 17.736 50.262 17.596 70.344.874l18.28 16.062L63.19 424.5 27.28 393.094c-43.194 49.26 52.96 137.527 98.19 85.937l-35.72-31.25 62.094-70.624 15.656 13.75c-13.85 22.104-10.03 51.822 10.188 69.53 22.412 19.634 56.774 17.353 76.406-5.06 19.63-22.415 17.35-56.775-5.063-76.407-9.838-8.62-21.997-13.02-34.186-13.345l155.97-176.594 6.186-7.03-7.03-6.156-30-26.375L443.155 31.624l-14.03-12.313zM448 59.374c0 68.735-44.594 97.895-44.594 138.656 0 24.618 19.98 44.564 44.594 44.564 24.615 0 44.594-19.946 44.594-44.563 0-44-44.594-67.328-44.594-138.655zM196.656 238.28l59.594 52.19-14.28 16.155-59.595-52.188 14.28-16.156zM71.75 260.72c8.49-.152 17.087 2.76 24.03 8.842 14.816 12.978 16.29 35.216 3.314 50.032-12.977 14.816-35.216 16.29-50.03 3.312-14.817-12.977-16.29-35.215-3.314-50.03 6.49-7.41 15.277-11.497 24.313-12.095.564-.036 1.12-.05 1.687-.06zm99.97 5.78l17.31 15.188-1.968 2.218-49.312 55.97-17.375-15.25L171.72 266.5zm43.718 38.313l15.875 13.906-51.407 58.186-15.72-13.812 51.25-58.28zm-2.75 79.375c8.49-.155 17.086 2.73 24.03 8.812 14.816 12.977 16.29 35.246 3.313 50.063-12.976 14.816-35.215 16.29-50.03 3.312-12.956-11.35-15.692-29.794-7.5-44.156.005-.01-.005-.025 0-.033l5.25-5.906 4.594-5.186c5.547-4.108 12.037-6.406 18.656-6.844.565-.037 1.12-.052 1.688-.063z"/></symbol><symbol id="icon-dead" viewBox="0 0 512 512"><path d="M255.997 16.004c-120 0-239.997 60-239.997 149.998C16 226.002 61 256 61 316c0 45-15 45-15 75 0 14.998 48.01 32.002 89.998 44.998v60h239.997v-60s90.567-27.957 90-45c-.933-27.947-15-30-15-74.998 0-30 45.642-91.42 44.998-149.998 0-90-119.998-149.998-239.996-149.998zm-90 179.997c33.137 0 60 26.864 60 60 0 33.136-26.863 60-60 60C132.863 316 106 289.136 106 256c0-33.136 26.862-60 59.998-60zm179.998 0c33.136 0 60 26.864 60 60 0 33.136-26.864 60-60 60-33.136 0-60-26.864-60-60 0-33.136 26.864-60 60-60zm-89.998 105c15 0 45 60 45 75 0 29.998 0 29.998-15 29.998h-60c-15 0-15 0-15-30 0-15 30-74.998 45-74.998z"/></symbol><symbol id="icon-pointy_sword" viewBox="0 0 512 512"><path d="M45.95 14.553c-19.38.81-30.594 11.357-30.282 30.283l19.768 30.78c4.43-1.213 9.36-3.838 14.248-7.335l42.474 59.935c-17.018 20.83-31.258 44.44-42.71 70.836l26.55 26.552c11.275-23.6 24.634-44.826 39.918-63.864l210.82 297.475 166.807 33.213L460.33 325.62 162.78 114.745c19.907-16.108 41.842-29.91 65.652-41.578l-26.553-26.55c-27.206 11.803-51.442 26.576-72.735 44.292L69.39 48.56c3.443-4.823 6.062-9.735 7.342-14.242l-30.78-19.765zm400.84 86.933v.008l.003-.008h-.002zm0 .008l-28.028 124.97-25.116-80.593-18.105 70.667-26.862-49.64-.584 57.818 128.484 91.69 15.184 87.017-1.168-186.885-34.457 39.713-9.346-154.756zm-300.95 27.98l222.224 196.368 25.645 66.75-66.75-25.645L130.6 144.734c4.91-5.278 9.995-10.36 15.238-15.26zm32.305 196.274v.004h.005l-.005-.004zm.005.004l28.028 22.775-36.21 4.088 57.82 19.272-105.706 4.09 115.05 27.45L136.1 422.114l127.316 25.696-67.164 43.803 208.494 1.752-87.017-15.185-104.54-150.676-35.037-1.752z"/></symbol><symbol id="icon-fist" viewBox="0 0 512 512"><path d="M227.227 21.777c-1.845 0-3.704.05-5.567.157-15.314.875-30.76 5.305-39.494 10.863l-.008 73.15c2.884-.094 5.777-.147 8.676-.142 23.382.036 47.104 3.286 68.47 9.513l.01-87.507c-7.034-3.518-19.178-6.03-32.087-6.033zm80.74 9.16c-11.925.15-23.077 2.364-29.967 5.596l-.008 77.602v7.658c38.486 15.67 64.814 42.48 58.735 78.764l-.96 5.73-5.562 1.674c-17.45 5.253-34.872 9.703-52.225 13.335V246.53c25.562-.704 51.327-2.687 77.145-6.098l.02-197.928c-8.284-5.563-23.508-10.243-38.842-11.328-2.792-.198-5.584-.273-8.336-.238zM143.223 46.294c-1.176-.015-2.374-.01-3.588.02-4.175.1-8.533.468-12.903 1.152-15.67 2.454-31.477 8.565-40.406 15.402l-.01 72.955c18.808-15.81 46.704-25.143 77.15-28.54l.007-57.966c-4.82-1.752-12.018-2.916-20.25-3.023zm258.394 3.46c-10.804.117-20.722 1.93-27.043 4.655l-.02 183.182c25.074-4.02 50.16-9.412 75.122-16.358l1.99-158.447c-8.352-5.9-23.648-11.025-39.05-12.553-3.698-.366-7.398-.517-11-.478zm-222.775 74.202c-53.72.702-101.407 20.365-97.887 66.6 15.836-3.918 30.84-5.893 44.94-6.1 34.84-.51 64.213 9.704 87.318 27.613 34.608-3.11 69.852-10 105.412-20.314.14-41.287-74.098-68.657-139.783-67.8zm-48.877 78.65c-1.296-.003-2.603.012-3.92.045-17.256.436-36.45 4.03-57.566 11.037 5.79 53.808 26.325 106.41 58.5 143.346 6.226 7.15 12.856 13.712 19.875 19.615 29.303 9.282 69.26 12.917 110.534 12.14 3.777-55.805-8.717-108.357-36.193-142.74-21.265-26.61-51.064-43.39-91.232-43.444zm129.326 22.282c-9.358 1.637-18.69 3.016-27.995 4.15 1.54 1.74 3.043 3.52 4.502 5.346 3.146 3.937 6.094 8.062 8.873 12.334 9.916.144 19.868.125 29.857-.106H259.29v-21.723zm191.817 15.343c-65.406 17.826-131.462 25.41-195.85 25.315 16.998 35.144 23.828 78.093 21.013 122.6 42.482-2.08 85.03-8.23 118.187-15.983 26.693-32.78 47.37-77.118 56.65-131.932zM400.51 389.9c-38.334 9.145-87.95 16.056-136.873 17.454-47.67 1.36-94.336-2.228-129.448-15.262l-.01 78.93c27.187 12.568 76.414 20.205 127.318 20.298 51.224.094 104.214-7.173 139-20.773l.012-80.647z"/></symbol><symbol id="icon-drowning" viewBox="0 0 512 512"><path d="M195.78 21.25c.558 3.56 1.4 7.026 2.5 10.375-10.494 7.93-17.31 20.482-17.31 34.563 0 23.834 19.54 43.374 43.374 43.374 21.168 0 38.917-15.417 42.625-35.562 25.962-4.582 46.306-26.02 50.436-52.75h-19c-4.337 20.21-21.453 35-41.812 35-20.36 0-37.476-14.79-41.813-35h-19zm175.064 13.938c-25.434 0-46.25 20.815-46.25 46.25 0 19.075 11.697 35.546 28.28 42.593-7.11 9.418-11.312 21.134-11.312 33.782 0 7.75 1.605 15.145 4.47 21.875-12.57 5.384-21.438 17.91-21.438 32.375 0 19.32 15.837 35.157 35.156 35.157 18.684 0 34.16-14.802 35.156-33.25.955.048 1.908.06 2.875.06 30.937 0 56.22-25.28 56.22-56.218 0-26.182-18.118-48.315-42.438-54.5 3.53-6.522 5.532-13.976 5.532-21.874 0-25.434-20.816-46.25-46.25-46.25zm-163.97 13.5c9.535 13.508 24.047 23.037 40.814 25.562-3.3 9.72-12.44 16.625-23.344 16.625-13.734 0-24.688-10.953-24.688-24.688 0-6.883 2.746-13.05 7.22-17.5zm157.657 5.906c-1.73 2.925-2.75 6.323-2.75 9.968 0 10.838 8.79 19.626 19.626 19.626 6.814 0 12.826-3.478 16.344-8.75.42 1.927.656 3.938.656 6 0 8.38-3.65 15.838-9.47 20.874-6.774 1.082-13.154 3.37-18.905 6.657-14.95-.423-26.75-12.47-26.75-27.532 0-13.163 9.002-24.028 21.25-26.844zm-77.31 53.812c-19.32 0-35.19 15.868-35.19 35.188s15.87 35.187 35.19 35.187c19.318 0 35.186-15.867 35.186-35.186 0-19.32-15.868-35.188-35.187-35.188zm110.56 11.875c3.978 0 7.788.622 11.376 1.75-8.97 3.188-15.406 11.75-15.406 21.814 0 12.78 10.376 23.125 23.156 23.125 7.517 0 14.18-3.574 18.406-9.126-.016 20.82-16.705 37.5-37.53 37.5-2.595 0-5.122-.257-7.563-.75-5.147-8.898-14.05-15.376-24.5-17.188-3.473-5.694-5.47-12.39-5.47-19.594 0-12.556 6.06-23.605 15.438-30.406 7.315-.77 14.12-3.26 20.03-7.062.685-.037 1.37-.063 2.063-.063zm-110.56 6.845c9.217 0 16.5 7.25 16.5 16.47 0 9.218-7.282 16.5-16.5 16.5-9.22 0-16.5-7.282-16.5-16.5 0-9.22 7.28-16.47 16.5-16.47zM193.936 154.5c-28.534 0-51.875 23.34-51.875 51.875 0 27.282 21.344 49.764 48.157 51.688-9.678 17.452-15.47 39.067-15.47 62.5-.002 30.41 9.606 58.155 24.844 77.25l10.03 12.562-15.874 2.5c-31.947 5.028-52.09 14.733-65.375 28.344-11.19 11.464-17.854 26.476-21.97 45.342H400.75c-4.88-18.106-12.076-32.644-23.156-43.906-13.31-13.53-32.53-23.205-61.656-28.687l-15.594-2.94 10.156-12.186c15.99-19.265 26.47-47.184 26.47-78.28 0-29.982-9.56-56.965-24.5-76.095-14.943-19.132-34.85-30.314-56.626-30.314-3.65 0-7.25.324-10.78.938.484-2.84.75-5.747.75-8.72 0-28.534-23.34-51.874-51.876-51.874zm-9.156 19.938c-1.747 3.255-2.75 6.982-2.75 10.937 0 12.78 10.377 23.125 23.157 23.125 8.837 0 16.508-4.938 20.407-12.22 1 3.18 1.53 6.57 1.53 10.095 0 6.337-1.743 12.238-4.78 17.25-6.165 3.686-11.928 8.405-17.22 14-3.486 1.23-7.257 1.906-11.186 1.906-18.435 0-33.157-14.72-33.157-33.155 0-15.252 10.084-27.995 24-31.938zm171.75 21.437c5.43 5.877 12.062 10.598 19.533 13.75.114.795.187 1.607.187 2.438 0 9.218-7.28 16.468-16.5 16.468-9.22 0-16.47-7.25-16.47-16.468 0-8.112 5.623-14.716 13.25-16.187zM224.47 266.75c4.943.072 9.195 2.03 11.343 5.75 3.818 6.613-.49 16.256-9.625 21.53-9.137 5.276-19.62 4.208-23.438-2.405-3.817-6.612.49-16.256 9.625-21.53 3.997-2.31 8.248-3.4 12.094-3.345zm60.81 0c3.847-.056 8.13 1.036 12.126 3.344 9.136 5.275 13.443 14.92 9.625 21.53-3.817 6.614-14.33 7.682-23.467 2.407-9.137-5.274-13.444-14.917-9.625-21.53 2.147-3.72 6.4-5.678 11.343-5.75zm-30.56 58.97c22.9-.08 45.62 14.087 54.31 42.75-36.916-23.654-71.587-24.153-109.624 0 9.35-28.35 32.412-42.673 55.313-42.75z"/></symbol><symbol id="icon-health_potion" viewBox="0 0 512 512"><path d="M192 17.65l16 34h96l16-34zm-9 53v51.95h32v22.2c-19.3-9-42.6-8.2-55-8.2-50.5 0-82.1 21.9-99.5 48-17.4 26.1-21.5 55.5-21.5 73 0 52.5 38.6 94.4 83.3 131C167 425.1 219 457.3 249.6 488l6.4 6.3 6.4-6.3c30.6-30.7 82.6-62.9 127.3-99.4 44.7-36.6 83.3-78.5 83.3-131 0-17.5-4.1-46.9-21.5-73s-49-48-99.5-48c-12.4 0-35.7-.8-55 8.2v-22.2h32V70.65zm18 18h110v15.95H201zm32 33.95h46v60.7l15.4-15.3c11.7-11.8 41.6-13.4 57.6-13.4 45.5 0 69.9 18.1 84.5 40 14.6 21.9 18.5 48.5 18.5 63 0 43.5-33.4 81.7-76.7 117-40.7 33.4-89 63.5-122.3 94.7-33.3-31.2-81.6-61.3-122.3-94.7-43.3-35.3-76.7-73.5-76.7-117 0-14.5 3.9-41.1 18.5-63s39-40 84.5-40c16 0 45.9 1.6 57.6 13.4l15.4 15.3zm-41 71c-64 0-80 48-80 80 0 64 80 96 144 144 64-48 144-80 144-144 0-32-16-80-80-80-32 0-48 0-64 48-16-48-32-48-64-48zm125.7 14.6c3.6-.1 5.9.3 5.8.6-16.5 7.3-33.9 24.4-44.6 41.7 0 0-3.2-17.7 9.9-31.9 7.4-8.1 21.1-10.3 28.9-10.4zM192 209.6c-24 21.5-41.3 58.2-47.2 90.4 0 0-19.5-23.7-7.7-53.4 9.8-24.5 50.1-36.5 54.9-37z"/></symbol><symbol id="icon-trail_mix" viewBox="0 0 512 512"><path d="M132.684 31.388a1.443 1.443 0 0 0-.29.004c-.396.048-.768.25-1.398.609-1.26.719-3.215 2.597-5.039 5.484-3.648 5.776-6.593 15.148-7.516 22.34-2.004 15.623 3.42 23.692 13.293 31.436 5 3.92 11.236 7.328 17.914 10.515-3.23-13.668-3.189-27.344-3.732-38.859-.419-8.882-1.232-16.509-3.107-21.623-1.853-5.052-3.884-7.627-8.987-9.62-.472-.156-.833-.262-1.138-.286zm111.212 11.478c-27.446.122-54.797 1.187-81.492 2.78.891 5.354 1.23 10.856 1.492 16.423.048 1.01.092 2.025.137 3.037 21.693 20.288 34.01 21.811 44.826 20.485 5.516-.677 10.93-2.497 17.13-3.977.993-.237 2.029-.455 3.081-.658 8.481-8.258 19.868-14.662 33.342-20.033A61.785 61.785 0 0 1 287.7 56.56c8.175.303 15.944 2.17 22.854 5.03 6.499 2.69 12.318 6.169 17.218 10.23 2.24-.62 4.518-.928 6.819-.967 7.174-.12 14.565 2.29 21.66 5.385 11.352 4.952 22.62 12.632 31.791 20.908 2.124 1.917 4.14 3.82 6.033 5.737l16.018-3.11 2.63-1.925c13.21-9.668 22.782-20.853 30.01-31.409-56.662-17.009-121.396-23.16-186.43-23.564-4.136-.026-8.271-.028-12.406-.01zm-142.01 7.254a4102.267 4102.267 0 0 0-36.077 3.254c1.134 11.198 6.268 21.673 18.056 32.58l3.17 2.934 22.328 4.808c-6.756-9.505-10.64-21.648-8.777-36.162.309-2.406.74-4.894 1.3-7.414zm183.048 24.371c-5.166.056-10.503 1.019-15.856 3.153C255.233 83.162 245 89.696 239.15 96.478c-5.85 6.78-7.914 13.268-6.27 22.378.093.51.196 1.012.302 1.51l33.588 7.235 69.66-13.526c-4.783-5.828-9.006-12.019-12.248-18.79-2.489-5.199-10.313-12.84-20.512-17.061-5.1-2.111-10.69-3.475-16.533-3.702-.73-.028-1.465-.039-2.203-.03zm57.095 15.85c3.411 5.378 7.23 10.978 11.621 16.22a150.804 150.804 0 0 0 3.252 3.54l15.147-2.94c-7.09-5.78-15.437-11.126-22.996-14.424a45.357 45.357 0 0 0-7.024-2.396zm-174.496.594c.94 5.71 2.199 11.12 3.799 16.109l43.184 9.303a43.858 43.858 0 0 1 1.423-13.678 70.877 70.877 0 0 1-4.888.787c-11.8 1.447-26.322-.936-43.518-12.521zM91.93 108.356l-8.383 76.563 94.193 2.305c21.335-19.254 48.606-30.866 78.479-30.866 31.857 0 60.758 13.206 82.652 34.805l77.983 1.908-5.041-75.295-145.231 28.198zm164.289 66.002c-58.224 0-106.217 52.74-106.217 119.13 0 66.39 47.993 119.128 106.217 119.128 58.223 0 106.217-52.739 106.217-119.129 0-66.39-47.994-119.129-106.217-119.129zM75.785 202.733l-6.281 62.846C63.95 321.138 77.74 377.93 99.787 435.145l1.66 4.31-2.531 3.86c-7.597 11.588-19.783 21.862-33.562 31.42 14.767 1.264 29.76 2.284 44.917 3.102l22.924-29.006 14.121 11.16-14.927 18.89c14.169.58 28.459.997 42.832 1.278l1.113-25.775 17.984.777-1.093 25.283c16.038.191 32.158.21 48.296.127v-25.629h18v25.5c16.873-.173 33.736-.457 50.543-.818l-3.898-24.117 17.77-2.873 4.296 26.58c16.438-.401 32.687-.872 48.893-1.346l-13.9-23.219 15.445-9.246 19.074 31.867c16.498-.494 32.835-.987 48.902-1.44-12.73-11.767-25.39-24.23-32.433-39.46l-1.111-2.402.367-2.623s12.397-89.64 12.533-132.92c.073-23.34-2.226-55.719-5.145-87.25l-66.455-1.625c16.34 23.275 26.034 52.45 26.034 83.937 0 75.138-55.176 137.13-124.217 137.13-69.042 0-124.217-61.992-124.217-137.13 0-33.654 11.075-64.665 29.502-88.656zm237.53 41.409c6.184-.143 12.236 2.243 17.081 5.77 6.891 5.014 12.332 12.414 15.83 21.1 6.998 17.373 5.063 41.493-15.263 57.376-17.671 13.808-38.32 16.338-57.145 10.445a79.905 79.905 0 0 1-6.324-2.295c-12.764 3.93-27.601 9.065-42.97 9.707-16.562.692-34.526-5.338-46.34-23.398-5.325-8.14-10.014-18.55-11.545-29.149-.766-5.3-.78-10.759 1.148-16.115 1.929-5.356 6.402-10.43 12.367-12.79l.145-.056.146-.052a32.522 32.522 0 0 1 10.29-1.885c6.457-.127 12.625 1.658 17.83 4.586 7.93 4.46 14.327 11 20.703 17.789.692.737 1.384 1.481 2.076 2.222 29.671 1.337 40.027-5.507 47.39-13.54 3.755-4.098 6.69-8.995 10.442-14.147 3.752-5.152 8.697-10.777 16.314-13.93a21.561 21.561 0 0 1 7.824-1.638zm1.013 17.925a4.529 4.529 0 0 0-1.955.346c-3.299 1.365-5.61 3.723-8.648 7.895-3.039 4.171-6.427 9.934-11.721 15.71-8.033 8.765-20.623 16.386-41.225 18.745 7.154 6.034 14.434 10.94 21.575 14.23l13.15 4.242c11.839 2.249 22.923-.082 34.375-9.03 14.157-11.063 14.339-24.833 9.652-36.468-2.343-5.817-6.195-10.7-9.726-13.271-2.318-1.687-4.071-2.343-5.477-2.399zm-122.54 18.5c-1.556.022-3.21.362-5.126 1.028-1.288.523-1.468.776-1.94 2.086-.49 1.365-.757 4.062-.269 7.443.977 6.761 4.824 15.8 8.793 21.867 8.623 13.182 17.991 15.796 30.527 15.272 6.35-.266 13.304-1.726 20.454-3.641-11.335-8.295-20.188-18.721-28.08-27.125-6.088-6.482-11.659-11.753-16.407-14.424-2.374-1.335-4.366-2.162-6.426-2.422a10.956 10.956 0 0 0-1.527-.084z"/></symbol><symbol id="icon-hearts" viewBox="0 0 512 512"><path d="M480.25 156.355c0 161.24-224.25 324.43-224.25 324.43S31.75 317.595 31.75 156.355c0-91.41 70.63-125.13 107.77-125.13 77.65 0 116.48 65.72 116.48 65.72s38.83-65.73 116.48-65.73c37.14.01 107.77 33.72 107.77 125.14z"/></symbol><symbol id="icon-falling_rocks" viewBox="0 0 512 512"><path d="M156.115 34.48l-36.94.586 10.02 28.995 27.258-2.324zM18 37.727V494h297.682L304 448l-64-64-48-160-88.055-80L96 64zM219.076 98.58L160 112l16.38 30.342 17.65 5.394-1.223 19.672L244.664 144zm34.656 60.99l-19.56 21.05 27.508 12.61 12.855-20.804zm50.907 90.002l-34.38 25.012-11.766 58.662 100.53 22.97-4.163-98.218zm107.475 62.373l-20.886 3.465-15.988 20.033 4.873 21.23 40.848-15.55zm-43.62 95.996l-44.32 5.87 6.858 29.422 36.875-1.396zm37.573 59.982l-32.103 5.375L340.113 494h79.508z"/></symbol><symbol id="icon-powder" viewBox="0 0 512 512"><path d="M260.28 71.406c-12.493.18-23.276 7.03-35.31 16.313C160.78 137.22 81.93 205.86 59.874 254c-8.294-11.01-37.188-8.578-37.188 6.656 0 13.07 20.105 16.687 31.594 11.094-.615 4.334-.52 8.38.345 12.125-6.367 1.883-11.28 5.995-11.28 12.28 0 13.762 22.29 17.075 33.343 10.158 5.03 2.766 10.308 5.383 15.812 7.812-.82 1.512-1.25 3.237-1.25 5.156 0 11.616 15.868 15.766 27.47 12.626-.146.71-.22 1.472-.22 2.25 0 18.294 39.406 18.13 39.406 0 0-.147-.026-.293-.03-.437 14.275 2.734 29.115 4.778 44.28 6.155 3.003 14.32 32.657 14.91 38.25 2.063 15.032.29 30.163 0 45.156-.875-.136.693-.25 1.43-.25 2.187 0 14.17 23.653 17.252 34.313 9.5 11.71 17.38 56 14.1 56-9.375 0-2.304-.407-4.408-1.188-6.313 9.565 4.504 22.57 5.225 33.25 2.157 2.438 16.508 39.282 15.748 39.282-1.783 0-9.43-10.643-13.827-20.876-13.406.577-1.795.906-3.732.906-5.81 0-1.85-.26-3.57-.72-5.19 5.083-1.994 9.978-4.1 14.658-6.28 12.24-5.705 17.59-14.928 17.687-26.563 11.533 5.37 31.313 1.566 31.313-11.28 0-14.457-25.064-17.168-35.22-8.657-18.55-51.64-99.242-128.954-160.78-175.188-13.177-9.9-23.94-13.796-33.657-13.656zM479.314 302.5c-9.854.043-19.72 4.577-19.72 13.47 0 18.293 39.407 18.13 39.407 0 0-9.066-9.834-13.513-19.688-13.47zM34.97 314.063c-9.854.043-19.72 4.576-19.72 13.468 0 18.296 39.406 18.13 39.406 0 0-9.064-9.834-13.51-19.687-13.467zM80.374 342.5c-10.71.047-21.43 4.817-22.156 14.156-10.41-.53-21.5 3.978-21.5 13.406 0 17.342 35.404 18.098 39.093 2.688 12.385 1.59 26.75-3.445 26.75-15.063 0-10.204-11.096-15.236-22.188-15.187zm89.22 10.406c-6.657.03-13.32 2.1-16.94 6.188-13.492-2.84-30.874 2.275-30.874 15.094 0 19.417 37.687 21.175 45.157 5.718 10.654.872 22.344-3.65 22.344-13.53 0-9.066-9.833-13.513-19.686-13.47zm89.186 1.625c-9.852.044-19.717 4.578-19.717 13.47 0 18.294 39.437 18.13 39.437 0 0-9.065-9.866-13.512-19.72-13.47zm210.626 6.064c-12.95.056-25.906 6.03-25.906 17.72 0 24.043 51.78 23.826 51.78-.002 0-11.913-12.923-17.775-25.874-17.718zm-75.187 7.125c-9.854.042-19.72 4.575-19.72 13.467 0 18.295 39.438 18.13 39.438 0 0-9.064-9.866-13.51-19.72-13.468zm-181.283 13.75c-11.298.048-22.593 5.24-22.593 15.436 0 12.487 16.006 17.455 28.97 15.063 6.844 18.704 50.905 16.82 50.905-5.158 0-15.218-21.107-20.517-36.376-16.28-3.558-6.105-12.228-9.1-20.906-9.063zm121.844 6.936c-6.21.027-12.443 1.842-16.186 5.406-11.597-4.94-30.78-1.042-30.78 11.375-.002 14.898 26.137 17.537 35.842 8.22 11.597 5.024 30.813 1.126 30.813-11.532 0-9.065-9.836-13.512-19.69-13.47zM94.44 390.97c-11.3.048-22.626 5.24-22.626 15.436 0 20.978 45.22 20.79 45.22 0 0-10.394-11.296-15.487-22.594-15.437zM429.5 404.81c-11.092.05-22.188 5.146-22.188 15.157 0 20.594 44.375 20.41 44.375 0 0-10.206-11.095-15.206-22.187-15.158zm-270.656 1.844c-11.3.05-22.594 5.24-22.594 15.438 0 20.978 45.188 20.79 45.188 0 0-10.395-11.296-15.487-22.594-15.438z"/></symbol><symbol id="icon-spray" viewBox="0 0 512 512"><path d="M265.174 45.484c-.776-.007-1.267.05-1.65.112l-27.59 47.79c.304.79 1.13 2.36 2.693 4.268 3.39 4.134 9.688 9.436 17.47 13.928 7.78 4.492 15.52 7.296 20.796 8.164 2.432.4 4.205.33 5.043.197l6.99-12.105c-.318-.153-.635-.305-.946-.484-6.76-3.903-9.076-12.55-5.173-19.31 3.902-6.76 12.546-9.074 19.306-5.17.31.178.6.378.893.577l6.52-11.294c-.303-.79-1.13-2.362-2.694-4.27-3.39-4.133-9.688-9.435-17.47-13.927-7.78-4.494-15.52-7.297-20.794-8.165-1.318-.217-2.477-.3-3.394-.31zm-60.7 48.536c-1.037-.014-2.06-.004-3.068.03-16.13.52-27.71 6.237-34.203 17.483-.276.478-.728 1.883.668 5.627 1.397 3.744 4.64 9.01 9.558 14.72 9.837 11.42 26.167 24.707 46.054 36.188 19.888 11.482 39.56 18.98 54.368 21.79 7.404 1.407 13.587 1.58 17.527.917 3.94-.663 4.93-1.755 5.205-2.232v-.002c5.958-10.316 5.226-23.413-2.328-37.88-2.336-4.474-5.336-8.993-8.932-13.43-1.055.42-2.117.74-3.146.96-4.08.88-8.104.69-12.32-.004-8.427-1.388-17.713-4.997-27.104-10.418-9.392-5.422-17.16-11.66-22.576-18.266-2.708-3.303-4.888-6.693-6.166-10.666-.36-1.116-.622-2.332-.778-3.596-4.423-.757-8.7-1.168-12.757-1.22zm97.23 4.818l193.605 255.916v-231.73L301.702 98.837zM154.91 132.822L42.62 327.316l-.007.012c-.51.892-.9 2.505.434 6.313 1.34 3.824 4.512 9.13 9.385 14.872 9.744 11.483 26.056 24.766 45.943 36.248 19.887 11.48 39.55 18.966 54.365 21.664 7.41 1.35 13.59 1.442 17.57.69 3.98-.75 5.176-1.9 5.69-2.79l.002.002L288.295 209.83c-4.396-.122-9.03-.68-13.93-1.61-17.716-3.36-38.812-11.603-60.226-23.966-21.416-12.363-39.1-26.512-50.87-40.174-3.255-3.778-6.055-7.512-8.358-11.258zm33.48 64.776c5.008.09 9.662 1.28 13.788 3.662v-.008c14.67 8.47 19.61 30.27 14.66 56.482-2.465-16.616-10.93-31.077-24.73-39.04-13.8-7.96-30.553-8.064-46.174-1.89 14.537-12.503 29.654-19.44 42.455-19.206zM94.45 303.38c2.02 17.568 10.47 33.054 24.882 41.378 14.65 8.45 32.714 7.993 49.16.617v.006c-21.552 20.4-45.073 28.748-60.855 19.636-15.65-9.034-19.83-33.092-13.187-61.635zm-64.513 45.9l-8.1 14.03c-.513.887-.91 2.498.43 6.32 1.34 3.824 4.51 9.13 9.382 14.872 9.74 11.478 26.044 24.757 45.92 36.236l.024.014h.002c19.887 11.48 39.548 18.965 54.365 21.662 7.408 1.35 13.59 1.442 17.57.69 3.98-.75 5.177-1.9 5.69-2.788l8.1-14.03c-4.408-.072-9.045-.586-13.93-1.475-17.84-3.247-38.947-11.503-60.362-23.867-21.413-12.363-39.116-26.514-50.848-40.34-3.213-3.785-5.977-7.542-8.243-11.324z"/></symbol><symbol id="icon-recently_dead" viewBox="0 0 512 512"><path d="M266.3 30.62V397.5c20.1-1.1 37.7-5.2 51.3-11.8 15.8-7.7 26.2-18.3 31-32l17.9 6.1c-6.6 19.1-21.3 33.7-40.6 42.9-16.8 8.3-37.2 12.8-59.6 13.7v64.9c43.9-3.1 83.8-26.9 113.7-64.9 31.9-40.7 52-97.5 52-160.4 0-62.9-20.1-119.7-52-160.44-29.9-38.03-69.8-61.92-113.7-64.94zm-19 .95C88.21 38.6 72.04 223.4 72.04 272.8c0 33.6 47.26 18.6 50.36 50.4l16.8 140.6c0 15.3 73.2 18.7 108.1 17.3v-40.4h-16.7v-24.1h-14.8v24.1h-18.9v-24.1h-14.6v24.1h-18.9v-24.1h-17.8v-18.9h17.8v-24.1h18.9v24.1h14.6v-24.1h18.9v24.1h14.8v-24.1h16.7v-31.3l-40.9 10.3 40.9-64.9zM173.2 226.7c25.8 0 52 4.1 54.2 12.5 8.6 32.4 4.4 57.8-16.8 67.2-63.4 27.8-88.2-16.8-88.2-67.2 0-8.4 25.2-12.5 50.8-12.5zm159.1 3c19.1 0 34.7 15.7 34.7 34.7 0 19-15.6 34.6-34.7 34.6-18.9 0-34.6-15.6-34.6-34.6s15.7-34.7 34.6-34.7zm0 19c-8.7 0-15.7 6.9-15.7 15.7 0 8.8 7 15.8 15.7 15.8 8.9 0 15.8-7 15.8-15.8s-6.9-15.7-15.8-15.7z"/></symbol><symbol id="icon-heat_haze" viewBox="0 0 512 512"><path d="M328.094 16.28c-418.547 189.59 58.108 230.146-86.313 473.533C566.646 247.035 59.723 256.837 328.095 16.28zm10.844 32.44C154.714 186.1 475.226 253.64 369.717 409.06 561.48 253.028 248.215 203.768 338.94 48.72zM141 102.25c-174.244 135.025 104.332 215.754 61.063 367C307.03 285.77 42.887 268.31 141 102.25z"/></symbol><symbol id="icon-dehydrated" viewBox="0 0 512 512"><path d="M150.906 58.938c-13.37-.01-29.125 14.14-29.125 41.406 0 18.72-4.71 34.642-12.56 46.47-7.852 11.825-19.205 19.82-31.94 20.717-12.732.9-25.585-5.956-34.593-18.874-6.01-8.618-10.554-20.166-13.624-34.406-7.895 13.74-11.263 27.425-10.813 40.53.645 18.79 8.978 36.824 24.47 52.314 40.785 40.785 141.155 6.742 141.155-79.313 0-25.746-4.91-43.316-11.28-53.936-6.37-10.62-13.595-14.398-20.407-14.875-.426-.03-.85-.032-1.282-.032zm208.656.718c-.43 0-.855.002-1.28.032-6.813.476-14.037 4.255-20.407 14.874-6.37 10.62-11.28 28.19-11.28 53.938 0 86.055 100.337 120.066 141.124 79.28 15.49-15.49 23.854-33.524 24.5-52.31.45-13.113-2.943-26.786-10.845-40.532-3.07 14.243-7.583 25.786-13.594 34.406-9.006 12.917-21.89 19.804-34.624 18.906-12.733-.898-24.055-8.893-31.906-20.72-6.492-9.778-10.66-22.48-11.97-37.124h-.592v-9.344c0-27.266-15.755-41.414-29.125-41.406zm-102.937 6.032c-19.596.01-39.624 8.368-57.594 26.093 2.274 10.362 3.532 22.31 3.532 36 0 47.166-25.996 82.428-59.25 100.97-.542 4.463-1.023 9.008-1.437 13.656-2.55 9.437-3.55 20.09-2.844 31.406 1.057 16.895 5.766 32.224 13.126 44 5.864 9.383 13.855 17 23.53 19.72 15.358 36.078 21.356 78.76 21.69 128.156 6.88 6.182 13.75 11.12 20.624 14.875 2.45-30.97-.93-61.794-1.97-93.875l-1.06-32.157 18.124 26.595 20.5 30.094 21.78-30.75 17.595-24.814-.626 30.406c-.65 31.64-3.01 62.71-1.656 93.25 6.645-3.634 13.345-8.202 20.093-13.78.16-37.35 2.333-71.957 11.25-103.063 2.356-8.215 5.213-16.185 8.626-23.876 12.878-.31 23.332-9.213 30.563-20.78 7.36-11.778 12.068-27.107 13.124-44.002.73-11.703-.35-22.704-3.094-32.375-.32-3.5-.67-6.948-1.063-10.343-34.684-18.06-62.28-54.012-62.28-102.594 0-14.95 1.495-27.82 4.187-38.813-17.418-16.315-36.64-24.01-55.47-24zM176.375 226.5c4.22 0 10.084 3.516 15.406 12.03 5.323 8.517 9.434 21.212 10.314 35.282.88 14.07-1.665 26.643-5.78 34.875-4.118 8.233-8.688 11.25-12.908 11.25-4.22 0-10.084-3.515-15.406-12.03-5.322-8.516-9.433-21.21-10.313-35.282-.88-14.07 1.665-26.642 5.782-34.875 4.115-8.233 8.685-11.25 12.905-11.25zm160.625 0c4.22 0 8.79 3.017 12.906 11.25 4.117 8.233 6.66 20.804 5.78 34.875-.878 14.07-4.99 26.766-10.31 35.28-5.323 8.517-11.187 12.033-15.407 12.033-4.22 0-8.79-3.018-12.908-11.25-4.116-8.233-6.66-20.805-5.78-34.875.88-14.07 4.99-26.766 10.312-35.282 5.322-8.514 11.186-12.03 15.406-12.03zm-64.375 190.188L261.062 433l-7.78 10.97-7.563-11.126L236.28 419c1.243 22.403 2.268 45.11-.155 68.75 5.675 1.436 11.347 2.132 17.03 2.094 6.335-.043 12.755-1 19.25-2.875-1.508-23.73-.675-47.114.22-70.283z"/></symbol><symbol id="icon-shield" viewBox="0 0 512 512"><path d="M256 16c25 24 100 72 150 72v96c0 96-75 240-150 312-75-72-150-216-150-312V88c50 0 125-48 150-72z"/></symbol><symbol id="icon-wood_axe" viewBox="0 0 512 512"><path d="M215.344 22.813L205.03 37.906l71.782 46.375 8.938-12.81c-15.62-23.633-44.153-40.97-70.406-48.657zm-38.47 18.843c-28.32 35.34-79.16 105.16-105.718 145.313 61.96 26.364 113.013 69.562 133.22 119.593 5.064 12.54 8.125 25.566 8.78 38.75 36.873-9.75 80.34-36.93 117.25-70.5 30.105-27.38 55.912-59.115 71.406-87.75L176.875 41.655zm240.657 155.53c-16.836 31.038-43.713 63.084-74.717 91.283-40.21 36.57-87.238 66.474-130.47 76.03-1.09 8.278-3.153 16.543-6.343 24.72-8.91 22.832-26.23 44.633-52.656 64.592 64.678 10.955 135.135-13.105 195.844-53.687 64.21-42.923 116.84-104.112 139.28-157.063l-70.937-45.875zM84.814 213.782L16.5 313.72v143.717l135.875-194.812c-18.23-18.513-41.412-35.295-67.563-48.844z"/></symbol><symbol id="icon-mauled" viewBox="0 0 512 512"><path d="M17.693 20.982v168.63c47.284 70.756 12.15 122.507 42.633 199.302.905 2.28 1.973 4.387 3.178 6.338 1.044-2.798 2.333-5.434 3.877-7.865 7.127-11.222 18.734-17.934 30.868-20.057 3.033-.53 6.12-.785 9.21-.75 9.27.104 18.56 2.805 26.454 8.414 3.745 2.66 7.097 6.017 9.918 9.96 1.362-4.63 1.842-9.743 1.178-15.31-3.44-28.83-12.01-46.885-18.106-68.915-8.08-29.223 9.544-34.714 22.422-11.568 13.213 23.744 28.915 61.117 55.836 103.256 4.75 7.436 11.243 11.896 18.602 13.967-4.62-21.072 3.372-40.816 18.17-51.707 6.938-5.107 15.317-8.215 24.246-8.948.93-.076 1.865-.126 2.806-.15 9.494-.245 19.49 2.19 28.957 7.72.328-6.672-1.21-13.41-5.178-19.866-25.69-41.814-52.278-61.296-71.25-81.764-23.602-25.463 8.272-34.155 24.53-20.44 22.78 19.216 39.543 47.34 75.337 75.922 7.955 6.353 16.932 8.802 26.058 8.366-9.076-20.095-4.538-42.08 8.107-56.727 10.096-11.693 25.555-19.03 42.176-18.583 4.39.118 8.86.78 13.333 2.045-1.195-8.403-5.125-16.255-12.584-22.703-38.462-33.25-76.602-44.38-99.284-63.075-30.98-25.533-19.543-37.388 11.097-29.784 12.636 3.137 32.526 13.325 51.514 16.472 5.185.86 10.06.516 14.574-.756-16.76-13.554-22.584-32.944-16.925-49.424 5.15-14.995 19.025-26.595 37.815-30.197-3.163-2.882-7.02-5.2-11.637-6.762-73.56-24.868-158.803-4.367-227.38-35.04H17.694zM407.316 80.31c-5.064.18-9.503 1.06-13.312 2.47l34.062 19.525-40.328 1.68 23.948 13.968-29.07 5.21c2.69 2.975 6.277 5.836 10.884 8.48l.113-.118c6.65 2.436 13.867 3.44 20.666 2.668l75.72.28c-16.91-19.202-36.964-34.384-61.658-47.252-6.42-3.345-13.636-5.677-20.947-6.622-.024-.098-.054-.192-.08-.29zm-6.242 178.56l20.07 29.253-37.9-7.432 22.83 28.83-44.437-8.803c.85 3.574 2.375 7.208 4.646 10.84 7.71 10.59 19.092 19.02 31.31 22.818 31.807 10.036 62.528 25.513 93.16 41.436-14.386-36.086-36.232-93.072-81.235-114.373.01-.033.016-.066.025-.1-2.882-1.203-5.712-2.017-8.47-2.468zM286.13 367.84l3.202 32.576-24.398-18.084 9.334 34.482-33.278-26.935c-.652 5.13-.044 10.86 2.227 17.073.077-.014.155-.023.232-.037 4.293 10.994 12.263 20.955 22.02 27.107l71.954 58.118-26.756-88.435c-1.993-11.377-8.207-22.51-16.78-30.64-2.6-2.133-5.194-3.864-7.757-5.223zm-164.35 21.525l-2.542 22.867-17.758-16.105-5.78 28.08-14.055-24.052c-1.953 4.123-2.988 9.222-2.374 15.637 4.8 27.664 26.61 54.21 53.94 78.715v-77.405c.508-4.21.35-8.58-.392-12.886-1.88-6.55-5.404-10.918-9.728-13.99-.426-.302-.865-.588-1.31-.863z"/></symbol><symbol id="icon-vomiting" viewBox="0 0 512 512"><path d="M256.25 20.313c-108.64 0-196.78 90.592-196.78 202.937 0 84.615 49.994 156.904 121.093 187.438v-16.375c0-25.638-6.2-40.132-13.875-48.47-7.675-8.336-17.567-11.4-27.72-11.937-18.252-.97-32.4-12.266-40.905-27-6.47-11.205-5.975-24.767-.532-36.97 5.444-12.2 15.49-23.71 29.19-33.905 27.394-20.39 69.79-35.56 122.436-35.56 52.702 0 98.475 15.648 129.344 36.218 15.435 10.284 27.24 21.746 34.22 33.968 6.976 12.222 8.93 26.41 2.186 38.094-4.19 7.257-11.026 11.988-18.687 15.938-7.663 3.95-16.085 6.78-24.595 6.78-11.865 0-20.63 2.214-27.438 10.157s-12.437 23.63-12.437 52.688v16.437c71.195-30.488 121.28-102.814 121.28-187.5 0-112.347-88.14-202.938-196.78-202.938zm-76.656 86.718c1.53.02 3.05.078 4.562.157 14.525.766 28.29 4.3 41.063 9.97l17.31 7.687-16.624 9.062-84.062 45.875-8.938-16.405 65.156-35.563c-24.195-5.513-50.92-1.877-82.062 17.532l-9.875-15.844c25.778-16.066 50.528-22.75 73.47-22.47zm150.312 0c22.944-.28 47.722 6.404 73.5 22.47l-9.875 15.844c-31.14-19.41-57.865-23.045-82.06-17.53l65.155 35.56-8.938 16.407-84.062-45.874L267 124.844l17.313-7.688c12.772-5.67 26.506-9.203 41.03-9.97 1.514-.078 3.034-.136 4.563-.155zm-73.594 170.282c-68.947 0-113.104 15.367-116.843 37.907l.5.03c13.487.714 28.843 5.31 40.468 17.938 11.624 12.627 18.812 32.418 18.812 61.125v100.312h113.813V394.312c0-31.4 5.766-51.81 16.937-64.843 11.17-13.034 27.003-16.69 41.625-16.69.352 0 .76-.03 1.156-.06-6.417-22.614-49.872-35.408-116.467-35.408z"/></symbol><symbol id="icon-frozen_body" viewBox="0 0 512 512"><path d="M380.7 29.4l-244.9.66c-18.2.63-25.1 16.17-25 40.81l-3.2 195.53-25.05 3.6 12.02-30.1-16.72-6.6-12 30.1-20.11-25.5-14.14 11.2 20.03 25.4-32.02 4.6 2.56 17.8 32.16-4.6-12.06 30.2 16.72 6.6 12-30.1 20.1 25.5 14.11-11.2-20.08-25.5 22.18-3.2-2.7 168c1.7 23.9 6 33.4 18 34.7l253.6 3.6c21.8 2.7 28.8-12.5 29.5-35.1l3.8-385.47c.3-19.47 1.2-39.36-28.8-40.93zm-24.4 20.77c26.3 1.35 31.9 39.46 31.6 57.13-5.6 104.2-3.9 209.5-5 314.3-.6 20.4-19.5 44.3-38.7 44.7-61.8 1.3-125.4 2.8-189.9-.8-10.7-.6-30.7-11.6-30.4-33.2l5.4-344.72c-.1-22.23 23.6-34.1 39.5-33.68 67.6 1.77 131.8 1.54 187.5-3.73zm98.4 7.4l-17 5.89 5.4 15.5-16.1-3.1-3.4 17.69 16.1 3.09L429 109l13.6 11.9 10.7-12.4 5.4 15.5 17-5.9-5.4-15.5 16.1 3.1 3.4-17.74-16.1-3.1 10.7-12.4-13.6-11.79-10.7 12.39-5.4-15.49zm-254 10.81c-15.8.12-41.6 10.71-48.8 30.02-16.2 43.3 5.1 132.8 18.6 144.5 4 3.5-3.1-100.9 39.7-159.47 7.5-10.3 1.3-15.13-9.5-15.05zm55.5 84.32c-17.2 0-32.5 18.4-32.5 42.5 0 12.4 4.1 23.4 10.3 31l6.2 7.8-9.9 1.5c-9.4 1.5-15.8 6-21.1 13.1-5.3 7.1-9.2 16.9-11.6 28.4-4.7 20.9-4.8 46.6-4.8 69h25.9l6.3 98h59.7l7.2-98h27.3c-.1-22.1-1.2-47.5-6.3-68.3-2.8-11.3-6.7-21.2-12-28.4-5.1-7.1-11.4-11.6-19.9-13.2l-9.7-1.8 6.4-7.5c6.4-7.8 10.8-18.9 10.8-31.6 0-22.7-13.7-40.4-29.1-42.5h-3.2zm104.3 189.2c-1.8.9-24.5 78.7-35.2 96.4-6.9 11.4 26 3.8 34.7-6.3 11.4-13.5 6.4-82.3.6-90.1h-.1zm95.6 32.2l-17.8 3 2.5 15.2-13.5-9.1-10 15 19.1 12.9-12.8 7.8 9.4 15.4 13.4-8.2 3.8 22.7 17.8-3-2.5-15.2 13.5 9.1 10-15-19.1-12.9 12.8-7.8-9.4-15.4-13.4 8.2-3.8-22.7z"/></symbol><symbol id="icon-switchblade" viewBox="0 0 512 512"><path d="M226.652 235.381l21.57-19.723c-21.518-19.505-39.248-5.543-42.497-.644-10.142 15.208 9.633 9.177 20.927 20.367zm92.283 51.446c-3.208 4.817-20.418 18.384-41.47.25l19.64-21.53c11.065 12.509 32.21 5.71 21.83 21.28zm-29.21-87.57C446.324 42.738 486 24.645 486 24.645s-15.457 42.311-171.996 198.923zM34.808 440.584c10.868-7.484 10.733-3.654 23.408-15.01l.26.26 28.961 28.961.26.26c-11.253 12.612-7.267 12.456-14.98 23.553a20.304 20.304 0 0 1-31.058 2.793l-9.717-9.717a20.315 20.315 0 0 1 2.866-31.1zm189.767-180.881l53.387-48.654 24.29 24.29-48.684 53.367zm-154.36 154.38l28.962 28.961 141.104-141.103-28.962-28.962zM186.802 308.49a11.969 11.969 0 1 1 0 16.931 11.969 11.969 0 0 1 0-16.93z"/></symbol><symbol id="icon-fishing_net" viewBox="0 0 512 512"><path d="M161.9 17.31c-32.7 0-63.75 8.22-88.96 24.19-28.82 18.25-49.85 47.08-55.85 84.2-5.99 37 2.83 81.8 31.25 133 19.84 35.6 44.25 63.8 59.66 93.5 12.4 25.7 18.4 46.7 15.6 75.2-14.7 2.9-25.73 15.7-25.73 31.2 0 17.5 14.23 31.8 31.73 31.8 17.6 0 31.8-14.3 31.8-31.8 0-13.2-8-24.4-19.4-29.3 1-10.2 1-19.8.1-29.1 9.2-10.8 19.9-16.3 33.2-18.1 14.7-2.1 32.7.7 53.3 8.1 5.1 9.7 9.7 20 13.7 31.1-9.2 5.4-15.3 15.4-15.3 26.8 0 17.1 13.9 31 31 31 17.2 0 31.1-13.9 31.1-31 0-16.3-12.5-29.7-28.5-31-4-11.6-8.7-22.4-13.9-32.6 10.2-9.9 27.5-16.7 47.6-20.6 22-4.3 46.7-5.4 67.4-6 7 6.4 13.9 13.2 20.6 20.3-.5 2.2-.8 4.6-.8 7 0 16.4 13.3 29.6 29.6 29.6 16.4 0 29.6-13.2 29.6-29.6 0-16.3-13.2-29.6-29.6-29.6-6.9 0-13.3 2.4-18.3 6.4-6.5-6.7-13.1-13-19.8-19.1-1-49.1 13.3-87.6 37.8-119.2 8.9-2.2 18-5.4 27.4-9.7 5.8 5.7 13.7 9.2 22.4 9.2 17.5 0 31.7-14.2 31.7-31.8 0-17.5-14.2-31.7-31.7-31.7s-31.8 14.2-31.8 31.7c0 2.1.2 4.2.6 6.2-7.8 3.5-15.2 6.1-22.4 8-15.5-19.9-16.9-35.5-12.6-52.8 4.6-18.4 17.3-38.6 29.9-61.9 6.3-4.02 12-8.88 16.7-14.62 5.5 4.16 12.3 6.62 19.7 6.62 17.9 0 32.5-14.53 32.5-32.47 0-17.93-14.6-32.46-32.5-32.46s-32.5 14.53-32.5 32.46c0 3.4.6 6.68 1.5 9.75-11.2 16.83-32.7 26.23-58.8 26.69-26.6.47-57.1-8.56-82.7-27.25-40-23.91-86.1-41.78-126.3-42.31zm46.8 25c18.6 4.78 37.1 12.46 54.7 23.22l.1 14.75c-17.7-13.23-37.1-27.25-54.3-36.15zm-61.8 3.22l4.6 15.78c-11.2-5.2-22.9-9.35-35.3-12.09 10.7-2.2 20.7-4.03 30.7-3.69zm20.2 2.72c9.1 2.07 18.4 5.46 26.2 9.03l9.8 36.94c-9.2-7.27-18.6-14.13-28.5-20.28zm-62.8 17.78c18.5 3.03 35.5 9.68 51.6 18.72l-10.8 18.65c-14-13.33-28.2-26.75-40.8-37.37zm111.5 3.34c10.8 6.65 21.4 14.27 31.9 22.28 5.3 4.12 10.6 8.34 15.9 12.55l.3 44.1c-11.7-10.6-23.6-21.9-35.9-32.9zm66.4 8.85c12.6 8.53 26.2 15.08 39.9 19.62l.7 28.26c-13-8.7-26.5-19.6-40.5-30.88zm-192.29.18c15.59 13.03 30.59 27.3 45.39 42.1l-13.9 23.9c-13.6-22.6-24.73-45.32-31.49-66zm81.89 16.22c13.7 9.28 26.8 19.98 39.7 31.38-2 6.1-12.2 21.9-16.1 28.1-12.2-12.2-24.3-24.7-36.6-37zm224.7 7.88c-8.2 14.6-15.8 28.9-19.9 44.2-11.2.2-22.8-3.2-34.9-9.3l-.8-34.6c19.1 3.5 38 3.8 55.6-.3zm-342.91 8c.3 21.8 3.72 41.3 9.41 58.9L46.75 166c.35-20.5 2.82-39.5 6.84-55.5zm32.38 8.7c6.46 13.6 13.77 26.2 21.73 37.7l-13.55 5.8c-4.74-15.3-7.78-30.3-8.18-43.5zm196.43.1c14.3 10.9 26.8 21 40.9 29.2l1 45.7c-14.1-7.6-27.9-17.8-41.6-29.4zm-133.5 15c11.9 12.1 23.8 24.5 36 36.6l-16.4 26.4c-12.6-11.1-24.3-23.1-35-36.5zm77.7 5.2c13 11.7 25 23.1 36.4 33.1l-17.1 28.6c-12.7-10.6-24.9-21.9-36.8-33.6zm115.6 18.7c10.3 4.3 20.9 6.9 31.7 7.2-.2 14.1 3.6 28.7 12.9 43.6-15.9.6-30-1.3-43.6-6.2zm-223 14.1c9.9 12.5 20.6 23.8 32 34.3l-22.7 8c-10.7-11.8-19.8-22.8-26.5-35zm79.4 12c12 11.6 24.3 22.9 37.3 33.5l-12.4 20.7c-14-9.4-28.9-20-40.5-29.2zm78.9.5c14 11.3 28.5 21.4 44 29l-16.3 28.5c-15.8-8.6-30.6-18.5-44.6-29.3 5.6-9.4 11.3-18.8 16.9-28.2zm-228.53.8l22.09 4.6c5.33 11.7 11.66 22.6 18.72 32.9l-27.53-1.9c-6.04-10.7-10.69-22.4-13.28-35.6zm118.53 35.1c11.4 9.4 23.3 18.1 35.5 26.4l-24.3 8.2c-12.1-8.3-24.5-17.5-34.8-26.3zm171.3.4c15 5.1 32.5 7.2 46.6 6.6-7.6 12.1-14.1 25.1-19 39.1-15.8-4.2-30.6-9.6-44.5-16 5.6-9.9 11.3-19.8 16.9-29.7zm-88.1 8.4c14.2 10.7 29.1 20.6 45.1 29.3L285 277.7c-15.5-9.9-30.9-19.4-45.8-29 3.8-6.4 7.7-12.8 11.5-19.2zm-127 6.6c10.8 10.6 23 18.1 33 26.6l-6.7 2.2c-9.3-9.5-19.5-20.4-26.3-28.8zm-48.2 4.7c9.67.6 19.32 1.5 29 2 7.6 8.9 15.6 17.9 22.5 25.2-7.3.7-17.4.9-25.6 1.2-9.27-9.7-18.85-19.4-25.9-28.4zm147.1 19.5c15.1 9.7 30.4 19.2 45.7 29l-24 10.8c-15.1-11.3-32.2-22.7-46-31.7zm89.9 6.9c15.1 7 31.2 12.9 48.4 17.5-3.3 13.4-5.4 27.5-6.1 42.5-17.7-14.5-35.9-27.3-54.1-39.3 3.9-6.9 7.9-13.8 11.8-20.7zm-136.6 8.7c17.1 11.6 34 22.3 48.8 33l-22.9 10.3c-12.1-14-24.8-26.9-37.2-39.5zm-31.2 10.4c11.6 11.7 23.2 23.3 34.4 35.6h-24.8c-10.7-12.6-22.4-23.8-33.9-34.7 8.1-.1 16.2-.9 24.3-.9zm-50.86 1.9c11.76 11.3 23.66 22.2 34.76 33.7H112c-7.2-11.3-14.92-22.4-22.66-33.6 1.5 0 3.01-.1 4.5-.1zm193.26 13.2c18.2 12 36.2 24.6 53.7 38.6-19.8 1.3-37.6 3.1-54.7 6.5-6.1-12.3-15.1-23.1-25.9-33 8.9-4.1 17.9-8.1 26.9-12.1zm-45.7 20.5c11.3 9.5 20.3 19.3 26.2 29.7-11.3 3.8-21.7 9-30.1 16.2-7.2-12.1-15.1-23.2-23.3-33.7zM123 340.6h22.2c6.3 7.9 12.1 16.2 17 25.2-8.7 2.6-16.8 6.7-24.1 12.5-4.1-14-9-26.4-15.1-37.7zm45.7 0h26.6c6.8 8.3 13.3 16.9 19.4 26-11.6-2.8-22.6-4.2-33.1-3.8-4.1-7.9-8.6-15.9-12.9-22.2z"/></symbol><symbol id="icon-spear_hook" viewBox="0 0 512 512"><path d="M18.506 19.895v37.56L135.11 174.06l33.755-33.757L48.97 19.895H18.507zm296.924 81.607c-8.398 17.695-17.58 34.514-27.555 50.48 53.052 55.6 109.094 165.155 145.602 270.827l6.332 18.327-18.28-6.467c-104.687-37.034-220.62-91.264-274.374-141.967-15.972 9.98-32.793 19.165-50.49 27.563 53.693 35.685 121.57 69.222 189.496 95.166-14.437 7.188-29.938 13.59-46.58 19.27l.002.003c68.264 38.63 175.57 65.47 254.412 64.127 1.33-78.052-27.08-188.95-64.127-254.416-5.76 16.87-12.257 32.57-19.56 47.166-26.458-69.205-60.387-138.182-94.88-190.08zm-117.858 36.523L135.79 199.81c34.207 31.62 67.775 56.763 94.798 71.598 14.454 7.935 27.094 12.95 36.334 14.762 9.24 1.812 13.778.34 15.564-1.445 1.786-1.786 3.26-6.326 1.448-15.565-1.812-9.24-6.83-21.88-14.764-36.334-14.835-27.023-39.976-60.59-71.598-94.8zm79.762 30.08c-4.66 6.81-9.48 13.45-14.457 19.926 8.892 12.557 16.52 24.587 22.676 35.802 8.515 15.51 14.306 29.43 16.718 41.73 2.414 12.3 1.528 24.28-6.57 32.377-8.096 8.096-20.076 8.982-32.376 6.57-12.3-2.413-26.22-8.206-41.73-16.72-11.1-6.094-23-13.632-35.414-22.405-7.41 5.793-15.027 11.387-22.877 16.76 47.263 42.21 149.664 92.317 245.545 127.873-35.19-95.766-86.347-192.602-131.514-241.913z"/></symbol></svg>